<?xml version="1.0" encoding="utf-8" ?>
<svg baseProfile="full" height="200mm" version="1.1" viewBox="0,0,200,200" width="200mm" xmlns="http://www.w3.org/2000/svg" xmlns:ev="http://www.w3.org/2001/xml-events" xmlns:xlink="http://www.w3.org/1999/xlink"><defs /><rect fill="#1a1a1a" height="200" width="200" x="0" y="0" /><text alignment-baseline="middle" fill="#e1ed5e" style="dominant-baseline: central; font-size:9.0px; font-family:Arial;" text-anchor="middle" x="100.0" y="100.0">2026</text><line stroke="#e1ed5e" stroke-width="0.3" x1="100.0" x2="100.0" y1="15.0" y2="10.0" /><path d="M 100.0 14.0 a86.0,86.0 0 0,1 42.46469731375804,11.215312516191453" fill="none" id="id13" stroke="none" /><text fill="#e1ed5e" style="font-size:6.75px; font-family:Arial;" text-anchor="middle"><textPath startOffset="22.20632615414155" xlink:href="#id13">January</textPath></text><path d="M 101.44485096284872 79.0497635885617 l 1.065939977724602 -15.456054020757794 a36.49276714885674,36.49276714885674 0 0,0 0.6263024427506493,0.04861312347650869 l -1.3318326098375923 15.43541563509282" fill="#ff7f0b" stroke="none" /><path d="M 101.80526077348638 79.07773832637324 l 0.8238660926130077 -9.548283675598213 a30.583761082594492,30.583761082594492 0 0,0 0.5241108158429061,0.049770637222645256 l -0.9881020355461579 9.53268749386039" fill="#ff2303" stroke="none" /><path d="M 102.16513564639614 79.11191278185805 l 1.7716123919531581 -17.091582331783435 a38.18315445636958,38.18315445636958 0 0,0 0.6531743069409032,0.0733917439579113 l -2.0655534024037867 17.058554634354923" fill="#ff980e" stroke="none" /><path d="M 102.52436894288641 79.15227682838746 l 1.0636981593217105 -8.784644901524093 a29.848810079328047,29.848810079328047 0 0,0 0.5095408945240788,0.06615303203081643 l -1.2147537823536354 8.76503354632914" fill="#ff1702" stroke="none" /><path d="M 103.2404852339499 79.25152402106235 l 2.544907442248105 -16.29476671607656 a37.492300513299114,37.492300513299114 0 0,0 0.6367813613218215,0.10507438077134672 l -2.825018009708802 16.248546072365585" fill="#ff8d0d" stroke="none" /><path d="M 103.59715602781102 79.31037775812273 l 3.4041215232854727 -19.57935319949935 a40.87307512832478,40.87307512832478 0 0,0 0.692126901483808,0.12648176728234697 l -3.740643545872181 19.517855950866267" fill="#ffbf11" stroke="none" /><path d="M 104.307194497241 79.44645832069477 l 3.792662630095088 -18.098242253312623 a39.491367242183856,39.491367242183856 0 0,0 0.6641268416524883,0.1451524044207381 l -4.103632195901104 18.030276350796015" fill="#ffab0f" stroke="none" /><path d="M 104.66035177308747 79.52364482259891 l 5.1213851729449384 -22.502014205683416 a44.07746150256649,44.07746150256649 0 0,0 0.7383527093059118,0.17474423107343576 l -5.507961569213374 22.41052406246911" fill="#ffec16" stroke="none" /><path d="M 105.01212808612495 79.60689891045804 l 4.999264481610866 -20.34076228599904 a41.946103593093795,41.946103593093795 0 0,0 0.6996832020456137,0.1783648272977887 l -5.348656572341505 20.251694462532384" fill="#ffce13" stroke="none" /><path d="M 105.71112130821622 79.79150937346287 l 4.8489898368172675 -17.157885531957206 a38.82991133924405,38.82991133924405 0 0,0 0.6416361466499859,0.1873111860287622 l -5.143616201190681 17.07187601700974" fill="#ffa10e" stroke="none" /><path d="M 106.0581310904928 79.89281104454417 l 3.8672530712991757 -12.835573724248047 a34.405506299580026,34.405506299580026 0 0,0 0.5655849539956455,0.17572999833293057 l -4.087623398005539 12.767103591032596" fill="#ff5f08" stroke="none" /><path d="M 107.08798089147638 80.2323363322302 l 2.822954592102236 -7.872935576500942 a29.36374241717219,29.36374241717219 0 0,0 0.4743190671126807,0.1746957153608717 l -2.958055984987493 7.823176593333746" fill="#ff1001" stroke="none" /><path d="M 107.4271985657038 80.35727306442388 l 5.333858419327183 -14.106466054060494 a36.08119458702753,36.08119458702753 0 0,0 0.5790461906071983,0.22466092593327422 l -5.575887774934048 14.012562424236673" fill="#ff780b" stroke="none" /><path d="M 108.09893153111575 80.62456947434976 l 8.707390689543018 -20.831074162901615 a43.577694820345314,43.577694820345314 0 0,0 0.6895988469932189,0.2952502375872465 l -9.064673294326552 20.67810439735158" fill="#ffe515" stroke="none" /><path d="M 109.08828744355905 81.06846463323043 l 9.383031250058053 -19.54550723237408 a42.68105459636024,42.68105459636024 0 0,0 0.6595823128959702,0.3236541764035181 l -9.718084829964456 19.381097895835733" fill="#ffd814" stroke="none" /><path d="M 109.41281617654863 81.2277094730956 l 9.671965105347677 -19.289119804126685 a42.57816145590294,42.57816145590294 0 0,0 0.6523369955328312,0.3341523460182852 l -10.002562588469264 19.1197749327959" fill="#ffd714" stroke="none" /><path d="M 109.73455568895987 81.39251694778311 l 4.279025412505924 -8.179304262803695 a30.2309846010266,30.2309846010266 0 0,0 0.45901424706493704,0.24518951411203385 l -4.4191847060991725 8.104436022189907" fill="#ff1d03" stroke="none" /><path d="M 110.36928655335952 81.73862282372117 l 11.649116834910426 -20.515289571577828 a44.59192720485301,44.59192720485301 0 0,0 0.6642143112069638,0.38475580111832924 l -12.00052787858272 20.31172961306945" fill="#fff316" stroke="none" /><line stroke="#e1ed5e" stroke-width="0.3" x1="143.23703022742887" x2="145.7803849466894" y1="26.81831364943548" y2="22.513508569990506" /><path d="M 143.74570117128098 25.957352633546492 a86.0,86.0 0 0,1 28.547481713284135,27.462654790039103" fill="none" id="id14" stroke="none" /><text fill="#e1ed5e" style="font-size:6.75px; font-family:Arial;" text-anchor="middle"><textPath startOffset="19.985693538727396" xlink:href="#id14">February</textPath></text><path d="M 110.68208982089419 81.91981866633111 l 15.985749909289629 -27.056995584263227 a52.426504899673354,52.426504899673354 0 0,0 0.7730111739317028,0.4657305830127914 l -16.449123149438968 26.777818391791822" fill="#a5ff21" stroke="none" /><path d="M 111.2981086023043 82.29822771554956 l 9.964267502732204 -15.611922360061286 a39.520765282314514,39.520765282314514 0 0,0 0.570290240322911,0.3709326359610936 l -10.231524768839396 15.438090799940664" fill="#ffab0f" stroke="none" /><path d="M 111.60114157652 82.49532879139004 l 12.001740959003671 -18.109125557390712 a42.72515165655623,42.72515165655623 0 0,0 0.6095359460510861,0.41156139168352696 l -12.311681599461298 17.899852253408515" fill="#ffd914" stroke="none" /><path d="M 111.90073688211348 82.69761687909136 l 7.338695188853452 -10.669668359440392 a33.94983667755483,33.94983667755483 0 0,0 0.4786423550688013,0.33531955774351146 l -7.521268683505904 10.541763958932945" fill="#ff5808" stroke="none" /><path d="M 112.48926042617603 83.11751280151076 l 10.656375496622898 -14.404866002070737 a38.918105459636024,38.918105459636024 0 0,0 0.535131078090799,0.4030496335872736 l -10.90275272847208 14.219299778977616" fill="#ffa20f" stroke="none" /><path d="M 112.77801427241765 83.33499621200491 l 18.97025310671803 -24.740881731920854 a52.17662155856276,52.17662155856276 0 0,0 0.708030405997953,0.5526289624736086 l -19.393316067875414 24.41067438022402" fill="#a8ff21" stroke="none" /><path d="M 113.06298171725822 83.55741782278167 l 10.441851461345465 -13.14332397087027 a37.7862809146057,37.7862809146057 0 0,0 0.5057902450468139,0.4089805361406982 l -10.66654510495677 12.961637337465442" fill="#ff920d" stroke="none" /><path d="M 116.15771136456269 86.58626213691792 l 16.45553198934115 -13.660981281463659 a42.387074195053664,42.387074195053664 0 0,0 0.4612147795256619,0.5653947850490713 l -16.68824526094322 13.375702326806486" fill="#ffd413" stroke="none" /><path d="M 117.45458315368197 88.32363383020206 l 11.679828391217889 -7.813303353938517 a35.0522631824545,35.0522631824545 0 0,0 0.33116604541516687,0.5043886071637238 l -11.812591071990981 7.611096682797119" fill="#ff6909" stroke="none" /><line stroke="#e1ed5e" stroke-width="0.3" x1="172.23445277983987" x2="176.4835382374775" y1="55.19839476539836" y2="52.563006222186495" /><path d="M 173.08426987136738 54.67131705675599 a86.0,86.0 0 0,1 12.851231095245387,41.99856678651699" fill="none" id="id15" stroke="none" /><text fill="#e1ed5e" style="font-size:6.75px; font-family:Arial;" text-anchor="middle"><textPath startOffset="22.20632615414155" xlink:href="#id15">March</textPath></text><path d="M 118.21658344932153 89.55222093294921 l 12.138721962497035 -6.961935841226567 a34.993467102193186,34.993467102193186 0 0,0 0.29518215723038815,0.5250961204026369 l -12.256761761019856 6.751956210889136" fill="#ff6809" stroke="none" /><path d="M 118.73160827565052 90.50648371742162 l 12.717914158222817 -6.445667844681081 a35.258049463369105,35.258049463369105 0 0,0 0.2697072670992242,0.5437133927115158 l -12.82698143827545 6.225794863470615" fill="#ff6c09" stroke="none" /><path d="M 119.04729006885535 91.15688171328212 l 13.438871947787822 -6.239288310554102 a35.816612225851614,35.816612225851614 0 0,0 0.25480566098878527,0.5614304982185071 l -13.544279925739955 6.007035803493532" fill="#ff740a" stroke="none" /><path d="M 119.196687751892 91.48605970444005 l 16.90347633589371 -7.496876032534585 a39.491367242183856,39.491367242183856 0 0,0 0.27025125493886915,0.623777156937 l -17.03001830067526 7.204799731010983" fill="#ffab0f" stroke="none" /><path d="M 119.34039704204932 91.81776055985345 l 13.632137065802848 -5.767276096286214 a35.80191320578628,35.80191320578628 0 0,0 0.235232742399103,0.5696347442131857 l -13.729391495088148 5.531766781619726" fill="#ff740a" stroke="none" /><path d="M 119.85752413597 93.16781622104841 l 22.586427942803017 -7.771090975825704 a44.88590760615959,44.88590760615959 0 0,0 0.24508283988726423,0.732766496530257 l -22.71684807646205 7.381151376373133" fill="#fff717" stroke="none" /><path d="M 119.97218684219823 93.5106431181261 l 26.71501333791937 -8.680234018614804 a49.08982734484368,49.08982734484368 0 0,0 0.25420235840558614,0.8058909432043179 l -26.86047118009316 8.219092908984067" fill="#cfff1d" stroke="none" /><path d="M 120.18372546131832 94.20196356495316 l 17.80085913294056 -5.113527233895725 a39.520765282314514,39.520765282314514 0 0,0 0.18219680555569653,0.6554588489553743 l -17.88624270906262 4.806357081521399" fill="#ffab0f" stroke="none" /><path d="M 120.37134235888165 94.90015583598534 l 16.340801453531288 -4.0908222668880905 a37.84507699486701,37.84507699486701 0 0,0 0.15276291432231234,0.6333009030944347 l -16.408797168114422 3.80893613213425" fill="#ff930d" stroke="none" /><path d="M 120.53481517161879 95.60439243477599 l 9.1989839312898 -1.9691009158259714 a30.407372841810545,30.407372841810545 0 0,0 0.10515261072130873,0.5127614740666977 l -9.231515837926105 1.810463785595862" fill="#ff2003" stroke="none" /><path d="M 120.6074358757038 95.95851677861258 l 61.822307627111385 -12.124449664162288 a84.0,84.0 0 0,0 0.26605710436056285,1.4212876901497489 l -62.02185045538181 11.058483896549978" fill="#4dd2ff" stroke="none" /><path d="M 120.78858239683441 97.02765380044208 l 8.759724640383332 -1.2524631909476414 a29.848810079328047,29.848810079328047 0 0,0 0.06834524818937517,0.5092514839342195 l -8.779985887630543 1.1014933649487575" fill="#ff1702" stroke="none" /><line stroke="#e1ed5e" stroke-width="0.3" x1="184.98032266829074" x2="189.97916517819016" y1="98.17113171792111" y2="98.06355123074" /><path d="M 185.9800911702706 98.14961562048488 a86.0,86.0 0 0,1 -9.607161424134198,41.387399972396054" fill="none" id="id16" stroke="none" /><text fill="#e1ed5e" style="font-size:6.75px; font-family:Arial;" text-anchor="middle"><textPath startOffset="21.466115282336823" xlink:href="#id16">April</textPath></text><path d="M 120.99513854157772 99.54816195383933 l 15.063007703068468 -0.3241721866411694 a36.0664955669622,36.0664955669622 0 0,0 0.008015337052378868,0.6207966879180901 l -15.066356047238562 0.06483924066261665" fill="#ff780b" stroke="none" /><path d="M 120.89721153311464 102.0752229133903 l 7.372044759232234 0.7320898378549078 a28.408306112925807,28.408306112925807 0 0,0 -0.05251166959797041,0.48619284314325234 l -7.358350788133213 -0.8588790028829515" fill="#ff0000" stroke="none" /><line stroke="#e1ed5e" stroke-width="0.3" x1="174.80103733775053" x2="179.2010983576182" y1="140.37084112569926" y2="142.7455964860345" /><path d="M 175.68104954172406 140.8457921977663 a86.0,86.0 0 0,1 -30.038265399797805,32.042727171017184" fill="none" id="id17" stroke="none" /><text fill="#e1ed5e" style="font-size:6.75px; font-family:Arial;" text-anchor="middle"><textPath startOffset="22.206326154141568" xlink:href="#id17">May</textPath></text><line stroke="#e1ed5e" stroke-width="0.3" x1="143.8653032363475" x2="146.44561519142675" y1="172.8068346515853" y2="177.08958963109032" /><path d="M 144.38136562736335 173.6633856474863 a86.0,86.0 0 0,1 -40.68145358897372,12.25698825130547" fill="none" id="id18" stroke="none" /><text fill="#e1ed5e" style="font-size:6.75px; font-family:Arial;" text-anchor="middle"><textPath startOffset="21.466115282336833" xlink:href="#id18">June</textPath></text><line stroke="#e1ed5e" stroke-width="0.3" x1="102.19456741930631" x2="102.32365962044197" y1="184.97166512339345" y2="189.96999836594603" /><path d="M 102.22038585953345 185.97133177190398 a86.0,86.0 0 0,1 -42.740103519485714,-10.115201625700543" fill="none" id="id19" stroke="none" /><text fill="#e1ed5e" style="font-size:6.75px; font-family:Arial;" text-anchor="middle"><textPath startOffset="22.20632615414155" xlink:href="#id19">July</textPath></text><line stroke="#e1ed5e" stroke-width="0.3" x1="58.666819895761336" x2="56.23545636021788" y1="174.27360380694188" y2="178.64263932499728" /><path d="M 58.180547188652646 175.14741091055294 a86.0,86.0 0 0,1 -31.652253787137756,-30.449443065178592" fill="none" id="id20" stroke="none" /><text fill="#e1ed5e" style="font-size:6.75px; font-family:Arial;" text-anchor="middle"><textPath startOffset="22.20632615414155" xlink:href="#id20">August</textPath></text><line stroke="#e1ed5e" stroke-width="0.3" x1="26.63291911575756" x2="22.317208475507996" y1="142.92168965132927" y2="145.44649492493687" /><path d="M 25.769776987707644 143.4266507060508 a86.0,86.0 0 0,1 -11.730757126820373,-40.83630448921669" fill="none" id="id21" stroke="none" /><text fill="#e1ed5e" style="font-size:6.75px; font-family:Arial;" text-anchor="middle"><textPath startOffset="21.46611528233685" xlink:href="#id21">September</textPath></text><line stroke="#e1ed5e" stroke-width="0.3" x1="15.007084014347285" x2="10.007500721073583" y1="101.09737516637583" y2="101.16192664675087" /><path d="M 14.007167355692545 101.11028546245083 a86.0,86.0 0 0,1 10.666146001902534,-42.60595125391555" fill="none" id="id22" stroke="none" /><text fill="#e1ed5e" style="font-size:6.75px; font-family:Arial;" text-anchor="middle"><textPath startOffset="22.20632615414155" xlink:href="#id22">October</textPath></text><line stroke="#e1ed5e" stroke-width="0.3" x1="26.266209847984243" x2="21.928928074336255" y1="57.711370442889674" y2="55.22380399835377" /><path d="M 25.398753493254645 57.213857153982495 a86.0,86.0 0 0,1 29.58750427330803,-30.492523968695096" fill="none" id="id23" stroke="none" /><text fill="#e1ed5e" style="font-size:6.75px; font-family:Arial;" text-anchor="middle"><textPath startOffset="21.46611528233685" xlink:href="#id23">November</textPath></text><line stroke="#e1ed5e" stroke-width="0.3" x1="56.762969772571076" x2="54.21961505331055" y1="26.818313649435495" y2="22.513508569990535" /><path d="M 56.25429882871897 25.957352633546506 a86.0,86.0 0 0,1 42.265352541879196,-11.944610805530505" fill="none" id="id24" stroke="none" /><text fill="#e1ed5e" style="font-size:6.75px; font-family:Arial;" text-anchor="middle"><textPath startOffset="22.20632615414155" xlink:href="#id24">December</textPath></text></svg>