<?xml version="1.0" encoding="utf-8" ?>
<svg baseProfile="full" height="200mm" version="1.1" viewBox="0,0,200,200" width="200mm" xmlns="http://www.w3.org/2000/svg" xmlns:ev="http://www.w3.org/2001/xml-events" xmlns:xlink="http://www.w3.org/1999/xlink"><defs /><rect fill="#1a1a1a" height="200" width="200" x="0" y="0" /><text alignment-baseline="middle" fill="#e1ed5e" style="dominant-baseline: central; font-size:9.0px; font-family:Arial;" text-anchor="middle" x="100.0" y="100.0">2023</text><line stroke="#e1ed5e" stroke-width="0.3" x1="100.0" x2="100.0" y1="15.0" y2="10.0" /><path d="M 100.0 14.0 a86.0,86.0 0 0,1 42.46469731375804,11.215312516191453" fill="none" id="id1" stroke="none" /><text fill="#e1ed5e" style="font-size:6.75px; font-family:Arial;" text-anchor="middle"><textPath startOffset="22.20632615414155" xlink:href="#id1">January</textPath></text><line stroke="#e1ed5e" stroke-width="0.3" x1="143.23703022742887" x2="145.7803849466894" y1="26.81831364943548" y2="22.513508569990506" /><path d="M 143.74570117128098 25.957352633546492 a86.0,86.0 0 0,1 28.547481713284135,27.462654790039103" fill="none" id="id2" stroke="none" /><text fill="#e1ed5e" style="font-size:6.75px; font-family:Arial;" text-anchor="middle"><textPath startOffset="19.985693538727396" xlink:href="#id2">February</textPath></text><line stroke="#e1ed5e" stroke-width="0.3" x1="172.23445277983987" x2="176.4835382374775" y1="55.19839476539836" y2="52.563006222186495" /><path d="M 173.08426987136738 54.67131705675599 a86.0,86.0 0 0,1 12.851231095245387,41.99856678651699" fill="none" id="id3" stroke="none" /><text fill="#e1ed5e" style="font-size:6.75px; font-family:Arial;" text-anchor="middle"><textPath startOffset="22.20632615414155" xlink:href="#id3">March</textPath></text><line stroke="#e1ed5e" stroke-width="0.3" x1="184.98032266829074" x2="189.97916517819016" y1="98.17113171792111" y2="98.06355123074" /><path d="M 185.9800911702706 98.14961562048488 a86.0,86.0 0 0,1 -9.607161424134198,41.387399972396054" fill="none" id="id4" stroke="none" /><text fill="#e1ed5e" style="font-size:6.75px; font-family:Arial;" text-anchor="middle"><textPath startOffset="21.466115282336823" xlink:href="#id4">April</textPath></text><line stroke="#e1ed5e" stroke-width="0.3" x1="174.80103733775053" x2="179.2010983576182" y1="140.37084112569926" y2="142.7455964860345" /><path d="M 175.68104954172406 140.8457921977663 a86.0,86.0 0 0,1 -30.038265399797805,32.042727171017184" fill="none" id="id5" stroke="none" /><text fill="#e1ed5e" style="font-size:6.75px; font-family:Arial;" text-anchor="middle"><textPath startOffset="22.206326154141568" xlink:href="#id5">May</textPath></text><line stroke="#e1ed5e" stroke-width="0.3" x1="143.8653032363475" x2="146.44561519142675" y1="172.8068346515853" y2="177.08958963109032" /><path d="M 144.38136562736335 173.6633856474863 a86.0,86.0 0 0,1 -40.68145358897372,12.25698825130547" fill="none" id="id6" stroke="none" /><text fill="#e1ed5e" style="font-size:6.75px; font-family:Arial;" text-anchor="middle"><textPath startOffset="21.466115282336833" xlink:href="#id6">June</textPath></text><line stroke="#e1ed5e" stroke-width="0.3" x1="102.19456741930631" x2="102.32365962044197" y1="184.97166512339345" y2="189.96999836594603" /><path d="M 102.22038585953345 185.97133177190398 a86.0,86.0 0 0,1 -42.740103519485714,-10.115201625700543" fill="none" id="id7" stroke="none" /><text fill="#e1ed5e" style="font-size:6.75px; font-family:Arial;" text-anchor="middle"><textPath startOffset="22.20632615414155" xlink:href="#id7">July</textPath></text><path d="M 99.09653310690486 120.98055641714683 l -0.6231047055019615 14.469908667917219 a35.48331855383581,35.48331855383581 0 0,0 -0.6099953033437977,-0.03152978956823443 l 0.8720880772592482 -14.457039071586783" fill="#ff0000" stroke="none" /><path d="M 98.73552117531835 120.96189622390904 l -1.7468115302129912 28.957766080638965 a50.01040445948814,50.01040445948814 0 0,0 -0.8588387712666138,-0.05923055001512501 l 2.245013062258535 -28.923407186107553" fill="#fff917" stroke="none" /><path d="M 98.37488393609728 120.93702456842531 l -2.2527431522831596 29.022997048245177 a50.11029387300319,50.11029387300319 0 0,0 -0.8594050989525384,-0.07415308812568978 l 2.7519925689772395 -28.97991970784082" fill="#fffb17" stroke="none" /><path d="M 98.01472825383883 120.90594882070398 l -1.3914826768153161 14.65303965698782 a35.7189603990613,35.7189603990613 0 0,0 -0.6115892306018149,-0.06339372438936607 l 1.6435045040227243 -14.626916564142693" fill="#ff0400" stroke="none" /><path d="M 97.65516085044442 120.86867818915974 l -1.665024515950198 14.818441088810598 a35.911690143684766,35.911690143684766 0 0,0 -0.6137009897354369,-0.07431064322728247 l 1.919852928737024 -14.787584916857966" fill="#ff0801" stroke="none" /><path d="M 97.2962882734958 120.8252237178851 l -3.994245242623591 30.765502825733837 a52.023703182864196,52.023703182864196 0 0,0 -0.8870571757317297,-0.12293804167301851 l 4.523231009542152 -30.692190218568214" fill="#e6ff1a" stroke="none" /><path d="M 96.93821686468263 120.77559828337769 l -5.264305560828287 35.720719835169966 a57.106547032089246,57.106547032089246 0 0,0 -0.9712576453817026,-0.15169046928628818 l 5.878399069818507 -35.62481105853657" fill="#9cff22" stroke="none" /><path d="M 96.58105272829116 120.7198165907248 l -6.174972105493005 37.42213006248212 a58.92817025532532,58.92817025532532 0 0,0 -0.9993965926525841,-0.17375790796980506 l 6.818217669617638 -37.3102935759913" fill="#82ff25" stroke="none" /><path d="M 96.22490169976321 120.6578951692458 l -6.025935662756353 32.974809479804065 a54.520888425593,54.520888425593 0 0,0 -0.9217467177813687,-0.17665495223847258 l 6.592649995109417 -32.86619732921712" fill="#c1ff1e" stroke="none" /><path d="M 95.86986931433489 120.58985236759428 l -5.139228628654594 25.620486807979024 a47.13084413438284,47.13084413438284 0 0,0 -0.7940616707040643,-0.1664033436130507 l 5.579481760788045 -25.52822748363943" fill="#ffcb12" stroke="none" /><path d="M 95.51606077576429 120.51570834832081 l -7.503745589946745 34.332458212474045 a56.14290660702273,56.14290660702273 0 0,0 -0.9423449206425637,-0.21447463592658264 l 8.093610659982172 -34.198206842969775" fill="#a9ff21" stroke="none" /><path d="M 95.16358092515715 120.4354850818985 l -5.808666523293395 24.54355510669687 a46.221552372015,46.221552372015 0 0,0 -0.7726630540126443,-0.18990177987760087 l 6.23028286204925 -24.43993206850524" fill="#ffbc11" stroke="none" /><path d="M 94.81253420990036 120.34920634021253 l -7.3545887738300335 28.850319320024543 a50.772989451842555,50.772989451842555 0 0,0 -0.8450307171643056,-0.22318029276776516 l 7.850109933805829 -28.719447677953195" fill="#f9ff18" stroke="none" /><path d="M 94.46302465271185 120.25689768951611 l -12.161461312258291 44.492428104828264 a67.12458455003001,67.12458455003001 0 0,0 -1.1119309913753341,-0.3142428049411379 l 12.92552347173824 -44.276496506548604" fill="#32ff4b" stroke="none" /><path d="M 94.11515582081647 120.15858648285463 l -11.246224115396487 38.5240415094965 a61.132023760073885,61.132023760073885 0 0,0 -1.0075868231654797,-0.3035776444590152 l 11.907685913002213 -38.32474849593176" fill="#65ff29" stroke="none" /><path d="M 93.76903079525671 120.05430185196036 l -12.178604361642902 39.19669636917262 a62.04508996767503,62.04508996767503 0 0,0 -1.0171809579896547,-0.32566922123234365 l 12.851506664723498 -38.98125430128057" fill="#59ff2a" stroke="none" /><path d="M 92.40401165467489 119.57807347666478 l -6.572671488732126 16.940553288706976 a39.170920621320015,39.170920621320015 0 0,0 -0.6265088889875599,-0.24930081659804282 l 6.863301453761544 -16.82490562770287" fill="#ff4306" stroke="none" /><path d="M 92.06813273071674 119.44442032107085 l -19.57651759711131 47.99046979204797 a72.82977167701472,72.82977167701472 0 0,0 -1.1567051167889417,-0.483502832629342 l 20.399694173397712 -47.64638191639865" fill="#3bff9e" stroke="none" /><path d="M 91.7346041902142 119.30500536409082 l -16.720936039570415 39.0541200161704 a63.48310243234181,63.48310243234181 0 0,0 -1.0008544154253858,-0.43874516332247504 l 17.390711129653546 -38.760510299553474" fill="#46ff2c" stroke="none" /><path d="M 91.40352486487194 119.15986991738527 l -21.07797489015434 46.97870355804322 a72.49057790959895,72.49057790959895 0 0,0 -1.1340702308865989,-0.5205960203677452 l 21.88351311680836 -46.608920467341406" fill="#3bff99" stroke="none" /><path d="M 91.07499286063937 119.00905698771935 l -6.7659608241745435 14.41058061636734 a36.91989508681156,36.91989508681156 0 0,0 -0.5729393384548567,-0.2750456999245946 l 7.013012830629642 -14.291980639943183" fill="#ff1b02" stroke="none" /><line stroke="#e1ed5e" stroke-width="0.3" x1="58.666819895761336" x2="56.23545636021788" y1="174.27360380694188" y2="178.64263932499728" /><path d="M 58.180547188652646 175.14741091055294 a86.0,86.0 0 0,1 -31.652253787137756,-30.449443065178592" fill="none" id="id8" stroke="none" /><text fill="#e1ed5e" style="font-size:6.75px; font-family:Arial;" text-anchor="middle"><textPath startOffset="22.20632615414155" xlink:href="#id8">August</textPath></text><path d="M 89.4739219176387 118.17145234162733 l -7.93215393150894 13.693491156445258 a36.82500445639107,36.82500445639107 0 0,0 -0.5457678350643766,-0.32244925689191556 l 8.1666896376017 -13.554923327259592" fill="#ff1902" stroke="none" /><path d="M 89.1626897886671 117.98757091392108 l -9.676032182991152 16.0601027065672 a39.749733271483294,39.749733271483294 0 0,0 -0.5830354592742673,-0.3581479988314468 l 9.951046842197728 -15.891166240907374" fill="#ff4e07" stroke="none" /><path d="M 88.8546689885994 117.79835938074946 l -9.365080853327443 14.955417159597767 a38.64565787401965,38.64565787401965 0 0,0 -0.5607635821943995,-0.3579058497670743 l 9.621126237568765 -14.791996881006888" fill="#ff3a05" stroke="none" /><path d="M 88.24862548938628 117.40417183066458 l -17.227550350758083 25.514568211166726 a51.786063114503364,51.786063114503364 0 0,0 -0.7344820176732948,-0.5051834291203016 l 17.66418925305427 -25.214243992681325" fill="#eaff1a" stroke="none" /><path d="M 87.95078237400918 117.19931262002967 l -22.504428626381728 32.12330586887014 a60.2218827664468,60.2218827664468 0 0,0 -0.8438883030311193,-0.6020918975885823 l 23.05404425726173 -31.731169709437335" fill="#71ff27" stroke="none" /><path d="M 87.65650970185807 116.9893568818739 l -26.687669728330313 36.732426113579685 a66.4037756548729,66.4037756548729 0 0,0 -0.918949296488567,-0.6798167205673334 l 27.316003995237445 -36.267599444272584" fill="#31ff40" stroke="none" /><path d="M 87.36589467227662 116.77436683061367 l -22.87692720302291 30.373814283365714 a59.02528622341718,59.02528622341718 0 0,0 -0.8063170909498841,-0.6182495622157573 l 23.39637302246628 -29.97552537932259" fill="#81ff25" stroke="none" /><path d="M 87.07902340077011 116.55440617244103 l -25.69422898303462 32.91954749753308 a62.75990912915105,62.75990912915105 0 0,0 -0.8458915255593181,-0.6720273868221841 l 26.257078001311296 -32.47238619670577" fill="#50ff2b" stroke="none" /><path d="M 86.79598089348748 116.32954008644616 l -30.236727707081187 37.39405806616941 a69.08924288329169,69.08924288329169 0 0,0 -0.9183272135694278,-0.7557207773692329 l 30.875925049195303 -36.86804216994299" fill="#35ff68" stroke="none" /><path d="M 86.51685102203217 116.09983520530335 l -25.15030095982215 30.031241327865793 a60.17158528911161,60.17158528911161 0 0,0 -0.7883466877201294,-0.6718461500912442 l 25.663513124119333 -29.593870787551598" fill="#72ff27" stroke="none" /><path d="M 85.97065885151581 115.62618273729859 l -32.126153634210915 35.78280277181431 a69.08844686133547,69.08844686133547 0 0,0 -0.8780827425678833,-0.8021077661948761 l 32.737335926245656 -35.22450223903286" fill="#35ff68" stroke="none" /><path d="M 85.70375840098266 115.38237550388516 l -16.811716176457264 18.088959206507923 a45.69502472103364,45.69502472103364 0 0,0 -0.5715450257543524,-0.540431495892538 l 17.120597036602433 -17.796893073869455" fill="#ffb410" stroke="none" /><path d="M 85.44109423537348 115.13401014063109 l -25.03028692409952 26.019030705769907 a57.10408872095437,57.10408872095437 0 0,0 -0.7025163828854969,-0.6875601407520839 l 25.47445325936081 -25.584320462095253" fill="#9cff22" stroke="none" /><path d="M 84.9287848128048 114.62390073753433 l -24.53323439201008 23.805086720826484 a55.18423238160213,55.18423238160213 0 0,0 -0.6556240212567105,-0.6874191651373651 l 24.939364964645748 -23.379260439106616" fill="#b7ff1f" stroke="none" /><path d="M 84.67929136418377 114.36230785411682 l -14.656724335899339 13.739859692455886 a41.08988085148635,41.08988085148635 0 0,0 -0.47929113855233335,-0.5201758697490485 l 14.891061882447403 -13.485532567905496" fill="#ff6509" stroke="none" /><path d="M 84.4343377721795 114.09645910891817 l -25.233417953471935 22.851700053185844 a55.04299600410302,55.04299600410302 0 0,0 -0.6299569989727759,-0.7077633664741946 l 25.623033802093047 -22.413962516970784" fill="#b9ff1f" stroke="none" /><path d="M 84.19399662182784 113.82643327865904 l -23.312816476213932 20.39308064372121 a51.97362023068902,51.97362023068902 0 0,0 -0.5832368053374026,-0.6784361687958785 l 23.660395791122113 -19.9887673757638" fill="#e7ff1a" stroke="none" /><path d="M 83.95833913139862 113.55231037782056 l -24.54399255457097 20.735247287362917 a53.13032913910043,53.13032913910043 0 0,0 -0.5841907392948235,-0.7036953788515 l 24.89727929375933 -20.309690651397656" fill="#d5ff1c" stroke="none" /><path d="M 83.72743513129214 113.27417163493432 l -24.779681130905143 20.213761201413945 a52.97856686684261,52.97856686684261 0 0,0 -0.5703573815998544,-0.711608530002349 l 25.12395642455986 -19.784224837833335" fill="#d8ff1c" stroke="none" /><path d="M 83.50135304334701 112.99209946851258 l -24.29649151606406 19.13262556268514 a51.9253433434794,51.9253433434794 0 0,0 -0.5469300933899425,-0.706980872625033 l 24.62222842667207 -18.71156669594685" fill="#e8ff1a" stroke="none" /><path d="M 83.28015986056508 112.70617746262583 l -20.11826930041374 15.288800481353984 a46.268402794846764,46.268402794846764 0 0,0 -0.4764295624952024,-0.6382552559687026 l 20.378460129604026 -14.940232345875977" fill="#ffbd11" stroke="none" /><path d="M 82.6465618267979 111.8261652097733 l -41.56087386450773 28.323249587693873 a71.29426113969986,71.29426113969986 0 0,0 -0.6823773852912435,-1.0200616048309563 l 42.0422543552097 -27.603651068657094" fill="#39ff88" stroke="none" /><path d="M 82.44556493220864 111.52570212397912 l -26.611523137106413 17.472307571231728 a52.834803211901146,52.834803211901146 0 0,0 -0.49260940539624243,-0.764540736595126 l 26.908337405879703 -17.011645234715154" fill="#daff1c" stroke="none" /><path d="M 82.24976979558568 111.22182372390057 l -32.989461802782316 20.856175995120797 a60.029279613857675,60.029279613857675 0 0,0 -0.5446524010333048,-0.8781530915655921 l 33.34357884348358 -20.28522657218994" fill="#74ff27" stroke="none" /><path d="M 82.05923443525364 110.91462005526583 l -24.332931560789923 14.803420838332727 a49.48214926684554,49.48214926684554 0 0,0 -0.43643049313211946,-0.7314826099244968 l 24.584142929620274 -14.382376134522119" fill="#fff116" stroke="none" /><line stroke="#e1ed5e" stroke-width="0.3" x1="26.63291911575756" x2="22.317208475507996" y1="142.92168965132927" y2="145.44649492493687" /><path d="M 25.769776987707644 143.4266507060508 a86.0,86.0 0 0,1 -11.730757126820373,-40.83630448921669" fill="none" id="id9" stroke="none" /><text fill="#e1ed5e" style="font-size:6.75px; font-family:Arial;" text-anchor="middle"><textPath startOffset="21.46611528233685" xlink:href="#id9">September</textPath></text><path d="M 81.87401531095188 110.60418214915194 l -25.1613822764055 14.72007647367481 a50.15091438446224,50.15091438446224 0 0,0 -0.42950199253231264,-0.7488729268107867 l 25.411036265090193 -14.284783701005717" fill="#fffb17" stroke="none" /><path d="M 81.69416730710424 110.29060199501025 l -54.91749807868727 30.871805985030743 a84.0,84.0 0 0,0 -0.6976943621939338,-1.2665179264087099 l 55.44076885033272 -29.92191754022421" fill="#4dd2ff" stroke="none" /><path d="M 81.51974371655577 109.97397251340807 l -25.48556756290212 13.754806560161793 a49.96047060236968,49.96047060236968 0 0,0 -0.40193791410355584,-0.760315059226112 l 25.71855798523056 -13.314076485849554" fill="#fff817" stroke="none" /><path d="M 81.35079622478065 109.6543875284942 l -37.21178130676143 19.26393006860827 a62.902454220611816,62.902454220611816 0 0,0 -0.4895048924971831,-0.9658395922381403 l 37.537864869044874 -18.620536264667447" fill="#4eff2c" stroke="none" /><path d="M 81.18737489456691 109.33194174019688 l -25.515028535645097 12.656647249369591 a49.48170291204089,49.48170291204089 0 0,0 -0.3719297934201729,-0.7662855364114489 l 25.729111585679988 -12.215572756992858" fill="#fff116" stroke="none" /><path d="M 81.02952815118164 109.00673069616217 l -41.01640761325036 19.4736188135232 a66.40448791904504,66.40448791904504 0 0,0 -0.48135469604913006,-1.0367951919657346 l 41.34553692613932 -18.764703554278636" fill="#31ff40" stroke="none" /><path d="M 80.87730276802145 108.67885076344099 l -27.070680361652297 12.286048985323223 a50.7282480969281,50.7282480969281 0 0,0 -0.35403223878896656,-0.7982492366876727 l 27.278153685172544 -11.818251412142853" fill="#faff18" stroke="none" /><line stroke="#e1ed5e" stroke-width="0.3" x1="15.007084014347285" x2="10.007500721073583" y1="101.09737516637583" y2="101.16192664675087" /><path d="M 14.007167355692545 101.11028546245083 a86.0,86.0 0 0,1 10.666146001902534,-42.60595125391555" fill="none" id="id10" stroke="none" /><text fill="#e1ed5e" style="font-size:6.75px; font-family:Arial;" text-anchor="middle"><textPath startOffset="22.20632615414155" xlink:href="#id10">October</textPath></text><line stroke="#e1ed5e" stroke-width="0.3" x1="26.266209847984243" x2="21.928928074336255" y1="57.711370442889674" y2="55.22380399835377" /><path d="M 25.398753493254645 57.213857153982495 a86.0,86.0 0 0,1 29.58750427330803,-30.492523968695096" fill="none" id="id11" stroke="none" /><text fill="#e1ed5e" style="font-size:6.75px; font-family:Arial;" text-anchor="middle"><textPath startOffset="21.46611528233685" xlink:href="#id11">November</textPath></text><line stroke="#e1ed5e" stroke-width="0.3" x1="56.76296977257108" x2="54.21961505331056" y1="26.818313649435495" y2="22.513508569990535" /><path d="M 56.25429882871898 25.957352633546506 a86.0,86.0 0 0,1 42.26535254187918,-11.944610805530505" fill="none" id="id12" stroke="none" /><text fill="#e1ed5e" style="font-size:6.75px; font-family:Arial;" text-anchor="middle"><textPath startOffset="22.20632615414155" xlink:href="#id12">December</textPath></text></svg>