<?xml version="1.0" encoding="utf-8" ?>
<svg baseProfile="full" height="200mm" version="1.1" viewBox="0,0,200,200" width="200mm" xmlns="http://www.w3.org/2000/svg" xmlns:ev="http://www.w3.org/2001/xml-events" xmlns:xlink="http://www.w3.org/1999/xlink"><defs /><rect fill="#1a1a1a" height="200" width="200" x="0" y="0" /><text alignment-baseline="middle" fill="#e1ed5e" style="dominant-baseline: central; font-size:9.0px; font-family:Arial;" text-anchor="middle" x="100.0" y="100.0">2026</text><line stroke="#e1ed5e" stroke-width="0.3" x1="100.0" x2="100.0" y1="15.0" y2="10.0" /><path d="M 100.0 14.0 a86.0,86.0 0 0,1 42.46469731375804,11.215312516191453" fill="none" id="id13" stroke="none" /><text fill="#e1ed5e" style="font-size:6.75px; font-family:Arial;" text-anchor="middle"><textPath startOffset="22.20632615414155" xlink:href="#id13">January</textPath></text><path d="M 101.44485096284872 79.0497635885617 l 2.846491429612239 -41.27392369655321 a62.37196261682243,62.37196261682243 0 0,0 1.0704508207537193,0.08308758576173808 l -3.5565324397282994 41.218810848603006" fill="red" stroke="none" /><path d="M 101.80526077348638 79.07773832637324 l 2.200056120211434 -25.497784320008694 a46.592523364485984,46.592523364485984 0 0,0 0.7984513535399629,0.07582257693548311 l -2.638632600841641 25.456136198558035" fill="red" stroke="none" /><path d="M 102.16513564639614 79.11191278185805 l 4.730922561938464 -45.641446650482116 a66.88598130841122,66.88598130841122 0 0,0 1.1441748359241648,0.12856137436653495 l -5.515864101372354 45.55324932264498" fill="red" stroke="none" /><path d="M 102.52436894288641 79.15227682838746 l 2.840504866574985 -23.458559531421965 a44.62990654205608,44.62990654205608 0 0,0 0.7618649601618299,0.0989119374997693 l -3.243884555244661 23.40618927075806" fill="red" stroke="none" /><path d="M 103.2404852339499 79.25152402106235 l 6.795933518676248 -43.51362625863185 a65.0411214953271,65.0411214953271 0 0,0 1.1046794493979137,0.18228157440942416 l -7.543942174213037 43.390198421282804" fill="red" stroke="none" /><path d="M 103.59715602781102 79.31037775812273 l 9.090383083365444 -52.28480237573473 a74.06915887850468,74.06915887850468 0 0,0 1.2542549653809834,0.22920707792739514 l -9.989033169849328 52.12057981645659" fill="red" stroke="none" /><path d="M 104.307194497241 79.44645832069477 l 10.127945191643333 -48.32963632255321 a70.37943925233645,70.37943925233645 0 0,0 1.1835719543789243,0.2586829867553348 l -10.958359870175784 48.14813983770201" fill="red" stroke="none" /><path d="M 104.66035177308747 79.52364482259891 l 13.676172492985675 -60.08949089442937 a82.62616822429906,82.62616822429906 0 0,0 1.3840918484932485,0.3275698223242458 l -14.708488028441447 59.845175159964256" fill="red" stroke="none" /><path d="M 105.01212808612495 79.60689891045804 l 13.350060790145898 -54.318072995508956 a76.93457943925233,76.93457943925233 0 0,0 1.2833094919202819,0.3271441635682598 l -14.283079170751206 54.08022583577183" fill="red" stroke="none" /><path d="M 105.71112130821622 79.79150937346287 l 12.948766629656577 -45.81850304670939 a68.61308411214952,68.61308411214952 0 0,0 1.1337814942419613,0.3309819085048715 l -13.735538341621965 45.588822809285816" fill="red" stroke="none" /><path d="M 106.0581310904928 79.89281104454417 l 10.32713187762509 -34.27618005116956 a56.7981308411215,56.7981308411215 0 0,0 0.9336926461450294,0.29010285014017334 l -10.915609896480838 34.093337066146866" fill="red" stroke="none" /><path d="M 107.08798089147638 80.2323363322302 l 7.538432013551514 -21.0239264055346 a43.33457943925234,43.33457943925234 0 0,0 0.6999931071907955,0.2578133688632103 l -7.899207446514886 20.891049768865063" fill="red" stroke="none" /><path d="M 107.4271985657038 80.35727306442388 l 14.243562109181498 -37.669977263366526 a61.27289719626168,61.27289719626168 0 0,0 0.9833332325897566,0.3815180172464606 l -14.889878506770922 37.41921654222952" fill="red" stroke="none" /><path d="M 108.09893153111575 80.62456947434976 l 23.25225949867998 -55.627404275511715 a81.29158878504673,81.29158878504673 0 0,0 1.2864054908715086,0.5507716964281499 l -24.206348747341803 55.21891305112077" fill="red" stroke="none" /><path d="M 109.08828744355905 81.06846463323043 l 25.05649341915814 -52.19441993642076 a78.89719626168224,78.89719626168224 0 0,0 1.2192574828206206,0.5982843516429677 l -25.951222168989194 51.75538042464296" fill="red" stroke="none" /><path d="M 109.41281617654863 81.2277094730956 l 25.8280638264923 -51.50976167008535 a78.62242990654207,78.62242990654207 0 0,0 1.2045686791770518,0.6170268631758158 l -26.71089299325811 51.05754228159703" fill="red" stroke="none" /><path d="M 109.73455568895987 81.39251694778311 l 11.426730790031398 -21.842054872508808 a45.65046728971963,45.65046728971963 0 0,0 0.6931370296964003,0.3702497964083364 l -11.801012866256109 21.64212634959872" fill="red" stroke="none" /><path d="M 110.36928655335952 81.73862282372117 l 31.107859660078564 -54.7841315288365 a84.0,84.0 0 0,0 1.2512130701386868,0.7247833704398019 l -32.04626946268258 54.24054400100664" fill="red" stroke="none" /><line stroke="#e1ed5e" stroke-width="0.3" x1="143.23703022742887" x2="145.7803849466894" y1="26.81831364943548" y2="22.513508569990506" /><path d="M 143.74570117128098 25.957352633546492 a86.0,86.0 0 0,1 28.547481713284135,27.462654790039103" fill="none" id="id14" stroke="none" /><text fill="#e1ed5e" style="font-size:6.75px; font-family:Arial;" text-anchor="middle"><textPath startOffset="19.985693538727396" xlink:href="#id14">February</textPath></text><line stroke="#e1ed5e" stroke-width="0.3" x1="172.23445277983987" x2="176.4835382374775" y1="55.19839476539836" y2="52.563006222186495" /><path d="M 173.08426987136738 54.67131705675599 a86.0,86.0 0 0,1 12.851231095245387,41.99856678651699" fill="none" id="id15" stroke="none" /><text fill="#e1ed5e" style="font-size:6.75px; font-family:Arial;" text-anchor="middle"><textPath startOffset="22.20632615414155" xlink:href="#id15">March</textPath></text><line stroke="#e1ed5e" stroke-width="0.3" x1="184.98032266829074" x2="189.97916517819016" y1="98.17113171792111" y2="98.06355123074" /><path d="M 185.9800911702706 98.14961562048488 a86.0,86.0 0 0,1 -9.607161424134198,41.387399972396054" fill="none" id="id16" stroke="none" /><text fill="#e1ed5e" style="font-size:6.75px; font-family:Arial;" text-anchor="middle"><textPath startOffset="21.466115282336823" xlink:href="#id16">April</textPath></text><line stroke="#e1ed5e" stroke-width="0.3" x1="174.80103733775053" x2="179.2010983576182" y1="140.37084112569926" y2="142.7455964860345" /><path d="M 175.68104954172406 140.8457921977663 a86.0,86.0 0 0,1 -30.038265399797805,32.042727171017184" fill="none" id="id17" stroke="none" /><text fill="#e1ed5e" style="font-size:6.75px; font-family:Arial;" text-anchor="middle"><textPath startOffset="22.206326154141568" xlink:href="#id17">May</textPath></text><line stroke="#e1ed5e" stroke-width="0.3" x1="143.8653032363475" x2="146.44561519142675" y1="172.8068346515853" y2="177.08958963109032" /><path d="M 144.38136562736335 173.6633856474863 a86.0,86.0 0 0,1 -40.68145358897372,12.25698825130547" fill="none" id="id18" stroke="none" /><text fill="#e1ed5e" style="font-size:6.75px; font-family:Arial;" text-anchor="middle"><textPath startOffset="21.466115282336833" xlink:href="#id18">June</textPath></text><line stroke="#e1ed5e" stroke-width="0.3" x1="102.19456741930631" x2="102.32365962044197" y1="184.97166512339345" y2="189.96999836594603" /><path d="M 102.22038585953345 185.97133177190398 a86.0,86.0 0 0,1 -42.740103519485714,-10.115201625700543" fill="none" id="id19" stroke="none" /><text fill="#e1ed5e" style="font-size:6.75px; font-family:Arial;" text-anchor="middle"><textPath startOffset="22.20632615414155" xlink:href="#id19">July</textPath></text><line stroke="#e1ed5e" stroke-width="0.3" x1="58.666819895761336" x2="56.23545636021788" y1="174.27360380694188" y2="178.64263932499728" /><path d="M 58.180547188652646 175.14741091055294 a86.0,86.0 0 0,1 -31.652253787137756,-30.449443065178592" fill="none" id="id20" stroke="none" /><text fill="#e1ed5e" style="font-size:6.75px; font-family:Arial;" text-anchor="middle"><textPath startOffset="22.20632615414155" xlink:href="#id20">August</textPath></text><line stroke="#e1ed5e" stroke-width="0.3" x1="26.63291911575756" x2="22.317208475507996" y1="142.92168965132927" y2="145.44649492493687" /><path d="M 25.769776987707644 143.4266507060508 a86.0,86.0 0 0,1 -11.730757126820373,-40.83630448921669" fill="none" id="id21" stroke="none" /><text fill="#e1ed5e" style="font-size:6.75px; font-family:Arial;" text-anchor="middle"><textPath startOffset="21.46611528233685" xlink:href="#id21">September</textPath></text><line stroke="#e1ed5e" stroke-width="0.3" x1="15.007084014347285" x2="10.007500721073583" y1="101.09737516637583" y2="101.16192664675087" /><path d="M 14.007167355692545 101.11028546245083 a86.0,86.0 0 0,1 10.666146001902534,-42.60595125391555" fill="none" id="id22" stroke="none" /><text fill="#e1ed5e" style="font-size:6.75px; font-family:Arial;" text-anchor="middle"><textPath startOffset="22.20632615414155" xlink:href="#id22">October</textPath></text><line stroke="#e1ed5e" stroke-width="0.3" x1="26.266209847984243" x2="21.928928074336255" y1="57.711370442889674" y2="55.22380399835377" /><path d="M 25.398753493254645 57.213857153982495 a86.0,86.0 0 0,1 29.58750427330803,-30.492523968695096" fill="none" id="id23" stroke="none" /><text fill="#e1ed5e" style="font-size:6.75px; font-family:Arial;" text-anchor="middle"><textPath startOffset="21.46611528233685" xlink:href="#id23">November</textPath></text><line stroke="#e1ed5e" stroke-width="0.3" x1="56.762969772571076" x2="54.21961505331055" y1="26.818313649435495" y2="22.513508569990535" /><path d="M 56.25429882871897 25.957352633546506 a86.0,86.0 0 0,1 42.265352541879196,-11.944610805530505" fill="none" id="id24" stroke="none" /><text fill="#e1ed5e" style="font-size:6.75px; font-family:Arial;" text-anchor="middle"><textPath startOffset="22.20632615414155" xlink:href="#id24">December</textPath></text></svg>