<?xml version="1.0" encoding="utf-8" ?>
<svg baseProfile="full" height="200mm" version="1.1" viewBox="0,0,200,200" width="200mm" xmlns="http://www.w3.org/2000/svg" xmlns:ev="http://www.w3.org/2001/xml-events" xmlns:xlink="http://www.w3.org/1999/xlink"><defs /><rect fill="#1a1a1a" height="200" width="200" x="0" y="0" /><text alignment-baseline="middle" fill="#e1ed5e" style="dominant-baseline: central; font-size:9.0px; font-family:Arial;" text-anchor="middle" x="100.0" y="100.0">2025</text><line stroke="#e1ed5e" stroke-width="0.3" x1="100.0" x2="100.0" y1="15.0" y2="10.0" /><path d="M 100.0 14.0 a86.0,86.0 0 0,1 42.46469731375804,11.215312516191453" fill="none" id="id1" stroke="none" /><text fill="#e1ed5e" style="font-size:6.75px; font-family:Arial;" text-anchor="middle"><textPath startOffset="22.20632615414155" xlink:href="#id1">January</textPath></text><line stroke="#e1ed5e" stroke-width="0.3" x1="143.23703022742887" x2="145.7803849466894" y1="26.81831364943548" y2="22.513508569990506" /><path d="M 143.74570117128098 25.957352633546492 a86.0,86.0 0 0,1 28.547481713284135,27.462654790039103" fill="none" id="id2" stroke="none" /><text fill="#e1ed5e" style="font-size:6.75px; font-family:Arial;" text-anchor="middle"><textPath startOffset="19.985693538727396" xlink:href="#id2">February</textPath></text><path d="M 115.4437574822437 85.77008943001954 l 11.251109932931435 -10.36679631512663 a36.298952270081486,36.298952270081486 0 0,0 0.41943674320525054,0.46315252789542904 l -11.42789031675272 10.171590999961651" fill="#ff980e" stroke="none" /><path d="M 115.68641384162765 86.03803664274999 l 14.59439108524892 -12.989989656710373 a40.53806752037252,40.53806752037252 0 0,0 0.4594471383180583,0.5252275025660907 l -14.815830087144827 12.736846597941335" fill="#ffd213" stroke="none" /><path d="M 115.9244219780498 86.31012108654704 l 14.448771233634485 -12.421294092136485 a40.054016298020954,40.054016298020954 0 0,0 0.4449608042639198,0.5266932443861139 l -14.660442651385523 12.170741898121264" fill="#ffcc13" stroke="none" /><path d="M 116.15771136456269 86.58626213691792 l 11.996959613874374 -9.959583246884453 a36.59231664726426,36.59231664726426 0 0,0 0.3981618824913053,0.48809938874341635 l -12.166619988442088 9.751599688532936" fill="#ff9c0e" stroke="none" /><path d="M 116.82858285166822 87.43820079747576 l 17.220400845886324 -12.854274154853096 a42.48894062863795,42.48894062863795 0 0,0 0.4324511984299387,0.5898629486600045 l -17.43911465682989 12.555948762521597" fill="#ffec16" stroke="none" /><path d="M 117.2510076193507 88.02491185347247 l 16.013915571210994 -11.116339101328348 a40.49406286379511,40.49406286379511 0 0,0 0.39255240403528524,0.5760222144993 l -16.202892440915015 10.839038863558642" fill="#ffd213" stroke="none" /><path d="M 117.45458315368197 88.32363383020206 l 18.92166220338608 -12.65777901899399 a43.765075669383,43.765075669383 0 0,0 0.41348277460098115,0.6297626331398929 l -19.136741613344988 12.330198321876424" fill="#fffd17" stroke="none" /><line stroke="#e1ed5e" stroke-width="0.3" x1="172.23445277983987" x2="176.4835382374775" y1="55.19839476539836" y2="52.563006222186495" /><path d="M 173.08426987136738 54.67131705675599 a86.0,86.0 0 0,1 12.851231095245387,41.99856678651699" fill="none" id="id3" stroke="none" /><text fill="#e1ed5e" style="font-size:6.75px; font-family:Arial;" text-anchor="middle"><textPath startOffset="22.20632615414155" xlink:href="#id3">March</textPath></text><path d="M 117.84615892207809 88.93136811851018 l 8.800503980666214 -5.458291577414537 a31.355762514551806,31.355762514551806 0 0,0 0.28053582900825286,0.46112714095995033 l -8.89315560796069 5.305996663247505" fill="#ff5007" stroke="none" /><path d="M 118.03404312379186 89.2402003453031 l 26.65427374850541 -15.902958837721984 a52.03795110593714,52.03795110593714 0 0,0 0.45233450165595035,0.7731862897130366 l -26.92406792463169 15.441793135655052" fill="#9aff22" stroke="none" /><path d="M 118.21658344932153 89.55222093294921 l 13.194829129415433 -7.567646257880098 a36.21094295692666,36.21094295692666 0 0,0 0.3054519926864357,0.5433650117399107 l -13.323138763394303 7.339397736205393" fill="#ff970d" stroke="none" /><path d="M 118.3937258080291 89.86733742301442 l 14.261026063035366 -7.856057364694297 a37.28172293364377,37.28172293364377 0 0,0 0.30480808928037384,0.5647630971105942 l -14.394142251534205 7.609413284251244" fill="#ffa60f" stroke="none" /><path d="M 118.73160827565052 90.50648371742162 l 14.41832292416778 -7.307465618208187 a37.164377182770664,37.164377182770664 0 0,0 0.28428976520166355,0.5731108190499377 l -14.541972702322852 7.058195210659299" fill="#ffa40f" stroke="none" /><path d="M 119.61058180528143 92.48833698450437 l 5.985907507968324 -2.2928498750441855 a27.41001164144354,27.41001164144354 0 0,0 0.16497617621883326,0.442054131272074 l -6.024488272688783 2.1894726067427785" fill="#ff1402" stroke="none" /><path d="M 120.18372546131832 94.20196356495316 l 30.028872106594658 -8.62618226308483 a52.24330616996508,52.24330616996508 0 0,0 0.24084967555259848,0.8664644290962746 l -30.17290855271362 8.108006530569604" fill="#98ff23" stroke="none" /><path d="M 120.28053869075195 94.5502522615342 l 14.930631743924952 -4.012130931089372 a36.46030267753201,36.46030267753201 0 0,0 0.15765377258280625,0.6075042967828225 l -14.997481848378062 3.7545302087576986" fill="#ff9a0e" stroke="none" /><path d="M 120.37134235888165 94.90015583598534 l 15.865457553075462 -3.971822754046332 a37.35506402793946,37.35506402793946 0 0,0 0.15078496065362967,0.6251010081774475 l -15.931475313989912 3.698136514209478" fill="#ffa70f" stroke="none" /><path d="M 120.45610955862082 95.25157060432595 l 19.132058695455147 -4.441080531413893 a40.64074505238649,40.64074505238649 0 0,0 0.15231689295438033,0.6828067647731548 l -19.205669975411567 4.111095597090775" fill="#ffd413" stroke="none" /><path d="M 120.67395015179393 96.31383870115 l 62.02185045538181 -11.058483896549978 a84.0,84.0 0 0,0 0.2415525539191079,1.4256568467366484 l -62.20301487082114 9.98924126149749" fill="#4dd2ff" stroke="none" /><path d="M 120.73433829027371 96.67025291283417 l 6.02478560797709 -0.9675260453510959 a27.10197904540163,27.10197904540163 0 0,0 0.07000583996879178,0.46125101746465397 l -6.040547341385182 0.8636759154943598" fill="#ff1001" stroke="none" /><path d="M 120.83666639777658 97.38593545837742 l 15.281839150872225 -1.91718354042168 a36.40162980209546,36.40162980209546 0 0,0 0.07264664071904087,0.622392053124906 l -15.312576144594855 1.6538477489719212" fill="#ff990e" stroke="none" /><path d="M 120.96714384426684 98.82574320788733 l 31.69236270942501 -1.774918531873212 a52.74202561117579,52.74202561117579 0 0,0 0.04296313107922551,0.9068837934476605 l -31.71821944873773 1.2291236318025516" fill="#92ff23" stroke="none" /><path d="M 120.98425023603335 99.18683210126433 l 16.240197388725228 -0.6293294750634135 a37.25238649592549,37.25238649592549 0 0,0 0.01931501744876374,0.6409713962209387 l -16.248624100629637 0.3496879314174757" fill="#ffa50f" stroke="none" /><line stroke="#e1ed5e" stroke-width="0.3" x1="184.98032266829074" x2="189.97916517819016" y1="98.17113171792111" y2="98.06355123074" /><path d="M 185.9800911702706 98.14961562048488 a86.0,86.0 0 0,1 -9.607161424134198,41.387399972396054" fill="none" id="id4" stroke="none" /><text fill="#e1ed5e" style="font-size:6.75px; font-family:Arial;" text-anchor="middle"><textPath startOffset="21.466115282336823" xlink:href="#id4">April</textPath></text><path d="M 120.99513854157772 99.54816195383933 l 19.577538966011346 -0.4213297729623918 a40.58207217694994,40.58207217694994 0 0,0 0.009018868666579959,0.6985213173686052 l -19.58189084179564 0.08427219753332385" fill="#ffd313" stroke="none" /><path d="M 120.99980553446 99.90962569577887 l 13.318619389026548 -0.05731771937097981 a34.31874272409779,34.31874272409779 0 0,0 -0.00254236957508227,0.5907571530822671 l -13.317632722161962 -0.17194891191497197" fill="#ff7c0b" stroke="none" /><path d="M 120.99824983174949 100.27111621757518 l 6.820153321371489 0.08805753748949555 a27.820721769499418,27.820721769499418 0 0,0 -0.01030418238004833,0.4787948656936546 l -6.817627076306433 -0.205442218973265" fill="#ff1b02" stroke="none" /><path d="M 120.9764740272857 100.99374915477107 l 29.64056364880022 1.4042057323179484 a50.67380675203725,50.67380675203725 0 0,0 -0.048776311851372836,0.870933814179202 l -29.612000986061318 -1.9142112628325738" fill="#aaff21" stroke="none" /><path d="M 120.92983693683757 101.71520430193887 l 19.41431207365795 1.5910067378171038 a40.47939464493597,40.47939464493597 0 0,0 -0.06288840917860146,0.6939683548792513 l -19.384049068202273 -1.9249564812449256" fill="#ffd213" stroke="none" /><path d="M 120.89721153311464 102.0752229133903 l 15.501400685565375 1.5393853788268912 a36.577648428405126,36.577648428405126 0 0,0 -0.0676123870711597,0.626006732474942 l -15.472605996993163 -1.8059884331866245" fill="#ff9c0e" stroke="none" /><path d="M 120.8583938346157 102.4346265915055 l 19.668566945330287 2.2957480082880815 a40.80209545983702,40.80209545983702 0 0,0 -0.08743012929803316,0.6969041537768776 l -19.626135306785407 -2.633969916352354" fill="#ffd614" stroke="none" /><path d="M 120.49622156327973 104.57218783832717 l 4.982085055195355 1.1113769739728903 a26.10454016298021,26.10454016298021 0 0,0 -0.1016081114078646,0.4377250846137397 l -4.9622163778569375 -1.1969707159351948" fill="#ff0000" stroke="none" /><path d="M 120.41448212921028 104.9243191809786 l 22.344232942821314 5.389807792731177 a43.98509895227008,43.98509895227008 0 0,0 -0.1838759060772136,0.7344928420910422 l -22.248145722449042 -5.773628474219615" fill="#feff18" stroke="none" /><path d="M 120.32669344350535 105.2749913415812 l 12.948505998004807 3.360273879060811 a34.377415599534345,34.377415599534345 0 0,0 -0.15357197560907204,0.5714984514185613 l -12.888745946053957 -3.5826632636549203" fill="#ff7c0b" stroke="none" /><path d="M 120.13307415673323 105.97154293290107 l 7.804788933867478 2.3149287504727103 a29.140861466821885,29.140861466821885 0 0,0 -0.14677728425225825,0.4796766574132106 l -7.763784877109087 -2.448932380437978" fill="#ff2f04" stroke="none" /><path d="M 119.9155931802556 106.66101706037122 l 21.116556773663334 7.062694224198033 a43.26635622817229,43.26635622817229 0 0,0 -0.2423104859099769,0.7042676950786452 l -20.991855456810125 -7.425134622365978" fill="#fff717" stroke="none" /><path d="M 119.79798401119884 107.00284435728193 l 14.423257734817494 5.101722932231696 a36.298952270081486,36.298952270081486 0 0,0 -0.21343047410877686,0.5872690000061659 l -14.333302999703491 -5.349239729243992" fill="#ff980e" stroke="none" /><path d="M 119.67450827220406 107.3425965602758 l 19.115651459815496 7.134029207457714 a41.4034924330617,41.4034924330617 0 0,0 -0.254938496019135,0.6655639664858994 l -18.990018684202855 -7.4620167407767575" fill="#ffde14" stroke="none" /><path d="M 119.54520255179757 107.68017299344265 l 9.010361129815877 3.540568690807089 a30.681024447031433,30.681024447031433 0 0,0 -0.19737743784280848,0.48987461391998727 l -8.948081077715676 -3.6951426725698893" fill="#ff4606" stroke="none" /><path d="M 119.41010516605496 108.01547362559984 l 11.49692841500438 4.747698464150402 a33.438649592549474,33.438649592549474 0 0,0 -0.22427623739832345,0.5301227750801182 l -11.413501196413748 -4.944895764896684" fill="#ff6f0a" stroke="none" /><path d="M 118.97047184881838 109.00673069616215 l 18.85563313681156 8.952207995789577 a41.87287543655413,41.87287543655413 0 0,0 -0.3147379535160854,0.6484534065456068 l -18.698741926680757 -9.275450358300459" fill="#ffe415" stroke="none" /><path d="M 118.64920377521936 109.65438752849418 l 15.709620316354743 8.132613289427693 a38.689871944121066,38.689871944121066 0 0,0 -0.31126461057425403,0.5887953400753012 l -15.567303197555594 -8.401823644589129" fill="#ffb911" stroke="none" /><line stroke="#e1ed5e" stroke-width="0.3" x1="174.80103733775053" x2="179.2010983576182" y1="140.37084112569926" y2="142.7455964860345" /><path d="M 175.68104954172406 140.8457921977663 a86.0,86.0 0 0,1 -30.038265399797805,32.042727171017184" fill="none" id="id5" stroke="none" /><text fill="#e1ed5e" style="font-size:6.75px; font-family:Arial;" text-anchor="middle"><textPath startOffset="22.206326154141568" xlink:href="#id5">May</textPath></text><path d="M 117.55443506779139 111.5257021239791 l 12.801045548852759 8.404772771199658 a36.31362048894063,36.31362048894063 0 0,0 -0.3475678547414609,0.5195667842126828 l -12.654474588700579 -8.623876469618148" fill="#ff980e" stroke="none" /><path d="M 116.93607887273984 112.41649034213515 l 10.13798807492762 7.432548700728626 a33.57066356228172,33.57066356228172 0 0,0 -0.34567989356728707,0.46309470763423594 l -10.008546914665242 -7.605956287872177" fill="#ff710a" stroke="none" /><path d="M 116.27256486870786 113.27417163493432 l 10.252284175721412 8.363191721567471 a34.23073341094296,34.23073341094296 0 0,0 -0.3763815843411648,0.4533758647139681 l -10.106806591486704 -8.53842884339521" fill="#ff7a0b" stroke="none" /><path d="M 115.80600337817218 113.82643327865902 l 13.590586839485413 11.88847918465373 a39.056577415599534,39.056577415599534 0 0,0 -0.4469953688030439,0.5022040354155899 l -13.383932621034031 -12.120657389810187" fill="#ffbe11" stroke="none" /><path d="M 115.56566222782051 114.09645910891815 l 11.850923279388379 10.732344886184489 a36.988358556461,36.988358556461 0 0,0 -0.4314491090832045,0.46825279567587946 l -11.664427762309453 -10.934748936661702" fill="#ffa20e" stroke="none" /><path d="M 115.07121518719521 114.62390073753431 l 5.737237911772795 5.566956392518884 a28.9941792782305,28.9941792782305 0 0,0 -0.35063541173938856,0.3551918208835061 l -5.640561874977871 -5.664888707383055" fill="#ff2d04" stroke="none" /><path d="M 114.55890576462653 115.13401014063108 l 20.551954749925653 21.363795921454308 a50.64447031431898,50.64447031431898 0 0,0 -0.6334517875157194,0.5989682031631538 l -20.181167128019123 -21.71439876136338" fill="#abff21" stroke="none" /><path d="M 114.29624159901734 115.38237550388516 l 6.620541220127005 7.123526164662998 a30.725029103608847,30.725029103608847 0 0,0 -0.390501148114139,0.3567135401094092 l -6.4969405225460015 -7.236432471358991" fill="#ff4706" stroke="none" /><path d="M 114.0293411484842 115.62618273729858 l 12.592109459233201 14.025363085514785 a39.84866123399301,39.84866123399301 0 0,0 -0.5143468739956485,0.4538513142155637 l -12.348820232330965 -14.240037541502637" fill="#ffc912" stroke="none" /><path d="M 113.75828350139079 115.86535959552629 l 8.581709313207435 9.895994960748528 a34.09871944121071,34.09871944121071 0 0,0 -0.446749282037642,0.38072943017116856 l -8.410094554592746 -10.042248781142643" fill="#ff780b" stroke="none" /><path d="M 113.20401910651253 116.32954008644616 l 20.42856972357992 25.26421277635267 a53.49010477299185,53.49010477299185 0 0,0 -0.7209511128456761,0.5727671666551621 l -19.99066111801689 -25.61211385701296" fill="#89ff24" stroke="none" /><path d="M 112.92097659922987 116.55440617244103 l 5.658755991420582 7.250020491353103 a30.19697322467986,30.19697322467986 0 0,0 -0.41250686212437315,0.3162926716819916 l -5.533120400802715 -7.346352504862467" fill="#ff3f05" stroke="none" /><path d="M 112.63410532772338 116.77436683061366 l 7.8805048132644755 10.462986900864728 a34.09871944121071,34.09871944121071 0 0,0 -0.47188573138554896,0.34908978288448217 l -7.699234111460362 -10.59708663248898" fill="#ff780b" stroke="none" /><path d="M 112.34349029814194 116.9893568818739 l 11.45832265860114 15.771028146223797 a40.49406286379511,40.49406286379511 0 0,0 -0.5674426707230589,0.40485527902355667 l -11.185152660029198 -15.965927687091572" fill="#ffd213" stroke="none" /><path d="M 112.04921762599082 117.19931262002967 l 9.29992000702202 13.274906015226628 a37.20838183934808,37.20838183934808 0 0,0 -0.5277266840558459,0.36297522536242927 l -9.07003643834329 -13.433022029954152" fill="#ffa50f" stroke="none" /><line stroke="#e1ed5e" stroke-width="0.3" x1="143.8653032363475" x2="146.44561519142675" y1="172.8068346515853" y2="177.08958963109032" /><path d="M 144.38136562736335 173.6633856474863 a86.0,86.0 0 0,1 -40.68145358897372,12.25698825130547" fill="none" id="id6" stroke="none" /><text fill="#e1ed5e" style="font-size:6.75px; font-family:Arial;" text-anchor="middle"><textPath startOffset="21.466115282336833" xlink:href="#id6">June</textPath></text><path d="M 109.57404056367764 118.69057910512821 l 7.382822432340004 14.41285168712098 a37.193713620488936,37.193713620488936 0 0,0 -0.5723334864394041,0.2869798915489962 l -7.1336350382178395 -14.53779941957928" fill="#ffa40f" stroke="none" /><path d="M 109.2508944713604 118.85261126421891 l 7.1336350382178395 14.53779941957928 a37.193713620488936,37.193713620488936 0 0,0 -0.5771885761402163,0.27708559223931234 l -6.8823337940773905 -14.658439288318151" fill="#ffa40f" stroke="none" /><path d="M 108.92500713936063 119.00905698771935 l 4.638094513399982 9.8785134334318 a31.91315483119907,31.91315483119907 0 0,0 -0.49926155800373767,0.22918649404644859 l -4.467364959628825 -9.956886997812324" fill="#ff5808" stroke="none" /><path d="M 107.93186726928326 119.44442032107085 l 7.263337362070098 17.805565802740777 a40.23003492433062,40.23003492433062 0 0,0 -0.6434486114848718,0.25604148177575436 l -6.9557676745433605 -17.9279541289226" fill="#ffce13" stroke="none" /><path d="M 107.59598834532513 119.57807347666477 l 7.932015769216113 20.44415821719244 a42.92898719441211,42.92898719441211 0 0,0 -0.6912175696681694,0.2613593397121725 l -7.578927978787669 -20.577665807011243" fill="#fff216" stroke="none" /><path d="M 107.2578585660854 119.70592522655815 l 4.344576105565907 11.796026486025843 a33.57066356228172,33.57066356228172 0 0,0 -0.5439733403297418,0.19504948619781926 l -4.140883204606431 -11.869063513263622" fill="#ff710a" stroke="none" /><path d="M 105.88484417918355 120.15858648285463 l 5.405287610449151 18.515861158291386 a40.28870779976717,40.28870779976717 0 0,0 -0.6673897962323745,0.18861102279175856 l -5.085766646112171 -18.606160974421663" fill="#ffcf13" stroke="none" /><path d="M 105.53697534728816 120.25689768951611 l 3.6818630015960365 13.470011595170666 a34.96414435389988,34.96414435389988 0 0,0 -0.5819191719336395,0.15369014228872432 l -3.4494533868508994 -13.531393086762975" fill="#ff850c" stroke="none" /><path d="M 105.18746579009965 120.34920634021253 l 4.366167364658965 17.127446081459443 a38.67520372526194,38.67520372526194 0 0,0 -0.6465144395066823,0.15889751961257817 l -4.070699640409072 -17.20006485938605" fill="#ffb911" stroke="none" /><path d="M 104.83641907484287 120.43548508189849 l 3.3950648453204284 14.345282310110354 a35.741559953434226,35.741559953434226 0 0,0 -0.5999133196596457,0.1365383184044533 l -3.147631376267921 -14.401597362092492" fill="#ff900d" stroke="none" /><path d="M 104.48393922423573 120.51570834832081 l 3.5641835882516344 16.307480396080848 a37.692433061699646,37.692433061699646 0 0,0 -0.6350430788919498,0.13307945159001022 l -3.2829490479303067 -16.366415828397397" fill="#ffab0f" stroke="none" /><path d="M 103.41894727170886 120.7198165907248 l 2.791675921276594 16.918369449050488 a38.14714784633294,38.14714784633294 0 0,0 -0.6487996722063677,0.10132916555946002 l -2.500040385461709 -16.963916921957054" fill="#ffb210" stroke="none" /><path d="M 102.70371172650421 120.8252237178851 l 2.2076640337253215 17.004437620168336 a38.14714784633294,38.14714784633294 0 0,0 -0.6519031071834995,0.07893638763325077 l -1.9146335034904414 -17.039919536526934" fill="#ffb210" stroke="none" /><path d="M 102.34483914955558 120.86867818915974 l 1.053130318857446 9.372684569706436 a30.431664726426078,30.431664726426078 0 0,0 -0.5210587936499952,0.05400987444269143 l -0.8916389286018481 -9.389423812604885" fill="#ff4206" stroke="none" /><path d="M 101.98527174616119 120.90594882070398 l 1.5808217396673514 16.646878921259052 a37.72176949941793,37.72176949941793 0 0,0 -0.6469385538123413,0.05582058059839623 l -1.2940388681134682 -16.67162375413611" fill="#ffac0f" stroke="none" /><path d="M 100.90346689309514 120.98055641714683 l 0.5281968262076607 12.265931819198068 a33.277299185098954,33.277299185098954 0 0,0 -0.5724957593719014,0.01971791150454149 l -0.31698071516110704 -12.273206529128702" fill="#ff6c0a" stroke="none" /><line stroke="#e1ed5e" stroke-width="0.3" x1="102.19456741930631" x2="102.32365962044197" y1="184.97166512339345" y2="189.96999836594603" /><path d="M 102.22038585953345 185.97133177190398 a86.0,86.0 0 0,1 -42.740103519485714,-10.115201625700543" fill="none" id="id7" stroke="none" /><text fill="#e1ed5e" style="font-size:6.75px; font-family:Arial;" text-anchor="middle"><textPath startOffset="22.20632615414155" xlink:href="#id7">July</textPath></text><path d="M 100.54218724476979 120.99299961872073 l 0.34689884717750774 13.43160953486486 a34.436088474970894,34.436088474970894 0 0,0 -0.5926947855846192,0.01020377823582736 l -0.11564437170022056 -13.435590790379846" fill="#ff7d0b" stroke="none" /><path d="M 100.18074693466247 120.99922214144158 l 0.13824299892111522 16.061104711207353 a37.061699650756694,37.061699650756694 0 0,0 -0.6379798671671303,0.0 l 0.13824299892110414 -16.061104711207353" fill="#ffa30f" stroke="none" /><path d="M 99.81925306533755 120.99922214144158 l -0.13357177430002576 15.518400716399434 a36.51897555296857,36.51897555296857 0 0,0 -0.6285442785079541,-0.01082095976762666 l 0.4006757427006479 -15.513802279352648" fill="#ff9b0e" stroke="none" /><path d="M 99.09653310690486 120.98055641714683 l -0.4082955155989898 9.481550641602327 a30.49033760186263,30.49033760186263 0 0,0 -0.5241607463034885,-0.02709312340649802 l 0.5714443303159672 -9.473117711433627" fill="#ff4306" stroke="none" /><path d="M 98.73552117531835 120.96189622390904 l -0.6262040652148698 10.38089715209651 a31.39976717112922,31.39976717112922 0 0,0 -0.5392345402276394,-0.03718877101662787 l 0.8048013662214393 -10.368580036563596" fill="#ff5107" stroke="none" /><path d="M 98.37488393609728 120.93702456842531 l -1.2906335026710531 16.627751060046283 a37.67776484284052,37.67776484284052 0 0,0 -0.6461838620450944,-0.05575546261714081 l 1.5766616824576891 -16.603071345150475" fill="#ffab0f" stroke="none" /><path d="M 98.01472825383883 120.90594882070398 l -1.1953231049063568 12.587376868530963 a33.644004656577415,33.644004656577415 0 0,0 -0.5760613044835652,-0.059711109582284136 l 1.4118170059955153 -12.56493639049292" fill="#ff720a" stroke="none" /><path d="M 97.65516085044442 120.86867818915974 l -1.3200980357684284 11.748652819880851 a32.82258440046566,32.82258440046566 0 0,0 -0.5609107355194467,-0.06791847861856459 l 1.5221361943392644 -11.724188812536937" fill="#ff6609" stroke="none" /><path d="M 97.2962882734958 120.8252237178851 l -2.345525004180356 18.066305837680993 a39.21792782305006,39.21792782305006 0 0,0 -0.6687056507777481,-0.0926765099380247 l 2.656159246144935 -18.02325476225036" fill="#ffc011" stroke="none" /><path d="M 96.58105272829116 120.7198165907248 l -1.6979312061827634 10.289957808618395 a31.429103608847498,31.429103608847498 0 0,0 -0.5330241702858354,-0.09267308434621008 l 1.8748043479406487 -10.259206145751177" fill="#ff5107" stroke="none" /><path d="M 96.22490169976321 120.6578951692458 l -1.8932623373015272 10.360210988255059 a31.53178114086147,31.53178114086147 0 0,0 -0.5330858797734899,-0.10216717761367382 l 2.071315831646712 -10.326086612292917" fill="#ff5307" stroke="none" /><path d="M 95.51606077576429 120.51570834832081 l -2.9597130851474382 13.541800504654134 a34.86146682188591,34.86146682188591 0 0,0 -0.5851411722535248,-0.13317622574879942 l 3.192374406793826 -13.488847545327648" fill="#ff830c" stroke="none" /><path d="M 95.16358092515715 120.4354850818985 l -4.047052422580958 17.100147470161406 a38.57252619324797,38.57252619324797 0 0,0 -0.6447980294902939,-0.15847566779059785 l 4.340803736814462 -17.02795054405678" fill="#ffb811" stroke="none" /><path d="M 94.81253420990036 120.34920634021253 l -3.025518464307241 11.868396247318369 a33.247962747380676,33.247962747380676 0 0,0 -0.5533562255836724,-0.14614640855311872 l 3.229365132702403 -11.81455848946167" fill="#ff6c0a" stroke="none" /><path d="M 94.46302465271185 120.25689768951611 l -3.2603051579258984 11.927751864211 a33.36530849825378,33.36530849825378 0 0,0 -0.5527024234817496,-0.15619922567122937 l 3.4651387495122616 -11.86986384520125" fill="#ff6e0a" stroke="none" /><path d="M 94.11515582081647 120.15858648285463 l -4.5996325749753515 15.756082613025148 a37.41373690337602,37.41373690337602 0 0,0 -0.6166586019984258,-0.18579417825447914 l 4.870166151414024 -15.674573065664944" fill="#ffa80f" stroke="none" /><path d="M 93.42475214034765 119.94407469862007 l -5.254074657584836 15.936685533332728 a37.78044237485448,37.78044237485448 0 0,0 -0.6158756632349374,-0.20893846338491345 l 5.527620053756999 -15.84388408304969" fill="#ffad10" stroke="none" /><path d="M 93.08242187328487 119.8279376855182 l -5.513124546623021 15.802335435978758 a37.73643771827707,37.73643771827707 0 0,0 -0.6114748384306798,-0.21925312182854614 l 5.784318945683427 -15.705094773110254" fill="#ffac0f" stroke="none" /><path d="M 92.7421414339146 119.70592522655815 l -5.921195905835445 16.076731546882364 a38.132479627473806,38.132479627473806 0 0,0 -0.6139869961095583,-0.23215734514979453 l 6.197053122705286 -15.972425951625935" fill="#ffb210" stroke="none" /><path d="M 92.40401165467489 119.57807347666478 l -4.615955665028766 11.897269330406303 a33.76135040745052,33.76135040745052 0 0,0 -0.539986954582298,-0.2148719532889663 l 4.820063695652922 -11.81605053271127" fill="#ff740a" stroke="none" /><path d="M 92.06813273071674 119.44442032107085 l -4.011179443278984 9.833127109980413 a31.619790454016297,31.619790454016297 0 0,0 -0.50219536005353,-0.20991770123162592 l 4.179846262829976 -9.762624365728815" fill="#ff5407" stroke="none" /><path d="M 91.7346041902142 119.30500536409082 l -12.291288250780413 28.708048721873826 a52.22863795110594,52.22863795110594 0 0,0 -0.8234201055427208,-0.36096317618362317 l 12.783629030980878 -28.49222099239575" fill="#98ff23" stroke="none" /><path d="M 91.40352486487194 119.15986991738527 l -5.097839853124832 11.362092824116484 a33.45331781140862,33.45331781140862 0 0,0 -0.5233564547053123,-0.2402472793420869 l 5.292664303597563 -11.272658474440323" fill="#ff6f0a" stroke="none" /><path d="M 91.07499286063937 119.00905698771935 l -6.315039975906161 13.450180252777438 a35.85890570430733,35.85890570430733 0 0,0 -0.5564744337336961,-0.2671415450878252 l 6.545627077640098 -13.33948443119005" fill="#ff920d" stroke="none" /><path d="M 90.7491055286396 118.85261126421891 l -5.233917011735915 10.66632022632176 a32.881257275902215,32.881257275902215 0 0,0 -0.505973799961219,-0.25370576714434073 l 5.416744719379895 -10.574646618268117" fill="#ff6709" stroke="none" /><path d="M 90.10565033884886 118.52300852407294 l -6.44802903412387 12.071222551543684 a34.68544819557625,34.68544819557625 0 0,0 -0.5242080960660916,-0.28584005038794436 l 6.654859942058602 -11.958441849395973" fill="#ff810b" stroke="none" /><line stroke="#e1ed5e" stroke-width="0.3" x1="58.666819895761336" x2="56.23545636021788" y1="174.27360380694188" y2="178.64263932499728" /><path d="M 58.180547188652646 175.14741091055294 a86.0,86.0 0 0,1 -31.652253787137756,-30.449443065178592" fill="none" id="id8" stroke="none" /><text fill="#e1ed5e" style="font-size:6.75px; font-family:Arial;" text-anchor="middle"><textPath startOffset="22.20632615414155" xlink:href="#id8">August</textPath></text><path d="M 89.7882731507175 118.34994917583269 l -5.777531139407792 10.381927007514193 a32.881257275902215,32.881257275902215 0 0,0 -0.4922030366600422,-0.2794857299257491 l 5.955382942989042 -10.28093811179381" fill="#ff6709" stroke="none" /><path d="M 88.54995079064634 117.60387380957326 l -5.966288738191738 9.1728683552561 a31.942491268917344,31.942491268917344 0 0,0 -0.4583371811715552,-0.3037608913179084 l 6.123300618103255 -9.068809442846874" fill="#ff5908" stroke="none" /><path d="M 88.24862548938628 117.40417183066458 l -12.394348436107126 18.356437344100243 a43.149010477299186,43.149010477299186 0 0,0 -0.6119826526665875,-0.42092724885983296 l 12.708487973396604 -18.140369305875307" fill="#fff517" stroke="none" /><path d="M 87.95078237400918 117.19931262002967 l -8.853860495372997 12.638191066080013 a36.430966239813735,36.430966239813735 0 0,0 -0.5105065611636656,-0.36423287660040093 l 9.07009438438555 -12.483913927635394" fill="#ff9a0e" stroke="none" /><path d="M 87.65650970185807 116.9893568818739 l -7.794073501411157 10.727621854165776 a34.26006984866123,34.26006984866123 0 0,0 -0.47411862916813036,-0.3507416272829929 l 7.977577100997851 -10.591870278143016" fill="#ff7b0b" stroke="none" /><path d="M 87.36589467227662 116.77436683061367 l -6.803884894766972 9.033553080141886 a32.309196740395805,32.309196740395805 0 0,0 -0.4413609690605447,-0.33841677047840746 l 6.958374592321003 -8.91509696783611" fill="#ff5e08" stroke="none" /><path d="M 86.79598089348748 116.32954008644616 l -9.702417764878584 11.999075323125513 a36.430966239813735,36.430966239813735 0 0,0 -0.4842367106434281,-0.3984938461921179 l 9.907524604066701 -11.830286358076215" fill="#ff9a0e" stroke="none" /><path d="M 86.51685102203217 116.09983520530335 l -8.51369034417899 10.165949494012262 a34.26006984866123,34.26006984866123 0 0,0 -0.44886323763086483,-0.38253098898900556 l 8.687419058386912 -10.017894114800304" fill="#ff7b0b" stroke="none" /><path d="M 86.24171649860922 115.8653595955263 l -13.136838332759856 15.148740326252232 a41.051455180442375,41.051455180442375 0 0,0 -0.5298719452843514,-0.4675503845587574 l 13.395652630950796 -14.920366799921185" fill="#ffd914" stroke="none" /><path d="M 85.97065885151581 115.62618273729859 l -8.280414391480193 9.222904130163425 a33.39464493597206,33.39464493597206 0 0,0 -0.424430751371684,-0.3877074282220457 l 8.43794469231873 -9.079003935354804" fill="#ff6e0a" stroke="none" /><path d="M 85.70375840098266 115.38237550388516 l -12.332380704158146 13.2693134439801 a39.11525029103609,39.11525029103609 0 0,0 -0.48924640858520707,-0.4626130165384293 l 12.558962947134171 -13.055065790695739" fill="#ffbf11" stroke="none" /><path d="M 85.18274418774928 114.88116024355367 l -10.411752745371986 10.45665695344469 a35.75622817229336,35.75622817229336 0 0,0 -0.432410921762255,-0.43802998079613487 l 10.590204292189775 -10.27588647866789" fill="#ff900d" stroke="none" /><path d="M 84.9287848128048 114.62390073753433 l -13.337762264616748 12.941896787745744 a39.58463329452852,39.58463329452852 0 0,0 -0.47029079395482193,-0.4930980172638135 l 13.558559609950526 -12.71039165389943" fill="#ffc512" stroke="none" /><path d="M 84.67929136418377 114.36230785411682 l -11.172167508120245 10.473282467775062 a36.31362048894063,36.31362048894063 0 0,0 -0.42357865606885237,-0.459710973362146 l 11.350792572184826 -10.279420239611573" fill="#ff980e" stroke="none" /><path d="M 84.43433777217949 114.09645910891817 l -13.786211668132525 12.48496634466233 a39.59930151338766,39.59930151338766 0 0,0 -0.4532067466118994,-0.5091825842302075 l 13.999077264392763 -12.245809590691259" fill="#ffc612" stroke="none" /><path d="M 84.19399662182784 113.82643327865904 l -9.362158927606517 8.189626603238318 a33.438649592549474,33.438649592549474 0 0,0 -0.37524134506296714,-0.43649045840146544 l 9.501742782240262 -8.027259045675322" fill="#ff6f0a" stroke="none" /><path d="M 83.06392112726016 112.41649034213515 l -9.960543709555491 7.302457416585187 a33.350640279394646,33.350640279394646 0 0,0 -0.33544424591524596,-0.4659027187934311 l 10.084767747846344 -7.129921092340618" fill="#ff6e0a" stroke="none" /><path d="M 82.85270091963577 112.12312394758628 l -15.845781152494908 11.202952025138524 a40.40605355064028,40.40605355064028 0 0,0 -0.39663177257558224,-0.571377650590577 l 16.036273832232624 -10.928533112360935" fill="#ffd113" stroke="none" /><line stroke="#e1ed5e" stroke-width="0.3" x1="26.63291911575756" x2="22.317208475507996" y1="142.92168965132927" y2="145.44649492493687" /><path d="M 25.769776987707644 143.4266507060508 a86.0,86.0 0 0,1 -11.730757126820373,-40.83630448921669" fill="none" id="id9" stroke="none" /><text fill="#e1ed5e" style="font-size:6.75px; font-family:Arial;" text-anchor="middle"><textPath startOffset="21.46611528233685" xlink:href="#id9">September</textPath></text><line stroke="#e1ed5e" stroke-width="0.3" x1="15.007084014347285" x2="10.007500721073583" y1="101.09737516637583" y2="101.16192664675087" /><path d="M 14.007167355692545 101.11028546245083 a86.0,86.0 0 0,1 10.666146001902534,-42.60595125391555" fill="none" id="id10" stroke="none" /><text fill="#e1ed5e" style="font-size:6.75px; font-family:Arial;" text-anchor="middle"><textPath startOffset="22.20632615414155" xlink:href="#id10">October</textPath></text><line stroke="#e1ed5e" stroke-width="0.3" x1="26.266209847984243" x2="21.928928074336255" y1="57.711370442889674" y2="55.22380399835377" /><path d="M 25.398753493254645 57.213857153982495 a86.0,86.0 0 0,1 29.58750427330803,-30.492523968695096" fill="none" id="id11" stroke="none" /><text fill="#e1ed5e" style="font-size:6.75px; font-family:Arial;" text-anchor="middle"><textPath startOffset="21.46611528233685" xlink:href="#id11">November</textPath></text><line stroke="#e1ed5e" stroke-width="0.3" x1="56.762969772571076" x2="54.21961505331055" y1="26.818313649435495" y2="22.513508569990535" /><path d="M 56.25429882871897 25.957352633546506 a86.0,86.0 0 0,1 42.265352541879196,-11.944610805530505" fill="none" id="id12" stroke="none" /><text fill="#e1ed5e" style="font-size:6.75px; font-family:Arial;" text-anchor="middle"><textPath startOffset="22.20632615414155" xlink:href="#id12">December</textPath></text></svg>