<?xml version="1.0" encoding="utf-8" ?>
<svg baseProfile="full" height="200mm" version="1.1" viewBox="0,0,200,200" width="200mm" xmlns="http://www.w3.org/2000/svg" xmlns:ev="http://www.w3.org/2001/xml-events" xmlns:xlink="http://www.w3.org/1999/xlink"><defs /><rect fill="#1a1a1a" height="200" width="200" x="0" y="0" /><text alignment-baseline="middle" fill="#e1ed5e" style="dominant-baseline: central; font-size:9.0px; font-family:Arial;" text-anchor="middle" x="100.0" y="100.0">2026</text><line stroke="#e1ed5e" stroke-width="0.3" x1="100.0" x2="100.0" y1="15.0" y2="10.0" /><path d="M 100.0 14.0 a86.0,86.0 0 0,1 42.46469731375804,11.215312516191453" fill="none" id="id13" stroke="none" /><text fill="#e1ed5e" style="font-size:6.75px; font-family:Arial;" text-anchor="middle"><textPath startOffset="22.20632615414155" xlink:href="#id13">January</textPath></text><path d="M 101.44485096284872 79.0497635885617 l 2.1368656429034814 -30.98440015573803 a52.05799812909261,52.05799812909261 0 0,0 0.8934387260896126,0.06934804041213191 l -2.6698945583554354 30.943026853137432" fill="#feff18" stroke="none" /><path d="M 101.80526077348638 79.07773832637324 l 1.651585628128789 -19.14122723742467 a40.21234798877455,40.21234798877455 0 0,0 0.6891149343744342,0.06543976648964471 l -1.9808256895934673 19.109961926419846" fill="#ff2f04" stroke="none" /><path d="M 102.16513564639614 79.11191278185805 l 3.5515110906974905 -34.263106582798784 a55.4466791393826,55.4466791393826 0 0,0 0.9484901584132839,0.10657392079441458 l -4.140767952620499 34.196896708533764" fill="#c8ff1d" stroke="none" /><path d="M 102.52436894288641 79.15227682838746 l 2.1323715205111555 -17.610377945712 a38.739008419083255,38.739008419083255 0 0,0 0.6613030452596141,0.08585611479917907 l -2.4351892942786155 17.571063507748683" fill="#ff1302" stroke="none" /><path d="M 103.2404852339499 79.25152402106235 l 5.101718099848166 -32.66574843082513 a54.06173994387278,54.06173994387278 0 0,0 0.9182020811092756,0.15151121084205138 l -5.663249387096317 32.573090957043455" fill="#deff1b" stroke="none" /><path d="M 103.59715602781102 79.31037775812273 l 6.824165036857593 -39.250284290483734 a60.83910196445276,60.83910196445276 0 0,0 1.0302229279179758,0.1882666550577762 l -7.49878308587847 39.12700215407522" fill="#78ff26" stroke="none" /><path d="M 104.307194497241 79.44645832069477 l 7.603064561547027 -36.28113484457339 a58.06922357343311,58.06922357343311 0 0,0 0.9765508956053989,0.21343620171057687 l -8.226458181305954 36.14488514476694" fill="#a0ff22" stroke="none" /><path d="M 104.66035177308747 79.52364482259891 l 10.266724439308705 -45.109276373039826 a67.26286248830684,67.26286248830684 0 0,0 1.1267372271658742,0.26666229825038895 l -11.041685353437103 44.92586816264857" fill="#31ff41" stroke="none" /><path d="M 105.01212808612495 79.60689891045804 l 10.021911865380808 -40.77666377820013 a62.99017773620206,62.99017773620206 0 0,0 1.0507094933877148,0.26784924488730144 l -10.722330247453549 40.59811153714396" fill="#5aff2a" stroke="none" /><path d="M 105.71112130821622 79.79150937346287 l 9.720659700934897 -34.3960231010143 a56.74321796071094,56.74321796071094 0 0,0 0.9376405576294488,0.2737229905690598 l -10.311290476287772 34.22360178152654" fill="#b4ff20" stroke="none" /><path d="M 106.0581310904928 79.89281104454417 l 7.752594323474402 -25.731182872837763 a47.87371375116932,47.87371375116932 0 0,0 0.7869860118839848,0.24452038474396387 l -8.194365708069105 25.59392235321128" fill="#ffba11" stroke="none" /><path d="M 107.08798089147638 80.2323363322302 l 5.659112900725059 -15.782694986381207 a37.76660430308699,37.76660430308699 0 0,0 0.6100523654838369,0.2246874346513945 l -5.929947591981472 15.682944283923488" fill="#ff0000" stroke="none" /><path d="M 107.4271985657038 80.35727306442388 l 10.692664726490321 -28.278911837092274 a51.23292797006548,51.23292797006548 0 0,0 0.8222075824891192,0.31900376824457805 l -11.177855473979108 28.090665364957147" fill="#fff316" stroke="none" /><path d="M 108.09893153111575 80.62456947434976 l 17.45550818305957 -41.75958085229013 a66.26099158091674,66.26099158091674 0 0,0 1.048552558440848,0.4489354837993512 l -18.171744499290735 41.45292584052798" fill="#2fff30" stroke="none" /><path d="M 109.08828744355905 81.06846463323043 l 18.80994945638392 -39.182434049558154 a64.46351730589336,64.46351730589336 0 0,0 0.996203028349175,0.48883249954868935 l -19.481623751743527 38.85284638987463" fill="#46ff2c" stroke="none" /><path d="M 109.41281617654863 81.2277094730956 l 19.389168588175924 -38.66846000022776 a64.25724976613657,64.25724976613657 0 0,0 0.9844807718402062,0.5042892887771849 l -20.051909847604886 38.32897818613807" fill="#49ff2c" stroke="none" /><path d="M 109.73455568895987 81.39251694778311 l 8.578064975678386 -16.396865327584955 a39.50514499532273,39.50514499532273 0 0,0 0.5998291033036167,0.3204079335874392 l -8.859039125510314 16.24677866749576" fill="#ff2203" stroke="none" /><path d="M 110.36928655335952 81.73862282372117 l 23.352719716756827 -41.12653466032861 a68.29420018709074,68.29420018709074 0 0,0 1.0172689986756651,0.5892678642034545 l -24.05718544789782 40.718462638735105" fill="#33ff51" stroke="none" /><line stroke="#e1ed5e" stroke-width="0.3" x1="143.23703022742887" x2="145.7803849466894" y1="26.81831364943548" y2="22.513508569990506" /><path d="M 143.74570117128098 25.957352633546492 a86.0,86.0 0 0,1 28.547481713284135,27.462654790039103" fill="none" id="id14" stroke="none" /><text fill="#e1ed5e" style="font-size:6.75px; font-family:Arial;" text-anchor="middle"><textPath startOffset="19.985693538727396" xlink:href="#id14">February</textPath></text><path d="M 110.68208982089419 81.91981866633111 l 32.04626946268258 -54.24054400100664 a84.0,84.0 0 0,0 1.23855173512945,0.7462135621655417 l -32.97518326402967 53.68088382938249" fill="#4dd2ff" stroke="none" /><line stroke="#e1ed5e" stroke-width="0.3" x1="172.23445277983987" x2="176.4835382374775" y1="55.19839476539836" y2="52.563006222186495" /><path d="M 173.08426987136738 54.67131705675599 a86.0,86.0 0 0,1 12.851231095245387,41.99856678651699" fill="none" id="id15" stroke="none" /><text fill="#e1ed5e" style="font-size:6.75px; font-family:Arial;" text-anchor="middle"><textPath startOffset="22.20632615414155" xlink:href="#id15">March</textPath></text><line stroke="#e1ed5e" stroke-width="0.3" x1="184.98032266829074" x2="189.97916517819016" y1="98.17113171792111" y2="98.06355123074" /><path d="M 185.9800911702706 98.14961562048488 a86.0,86.0 0 0,1 -9.607161424134198,41.387399972396054" fill="none" id="id16" stroke="none" /><text fill="#e1ed5e" style="font-size:6.75px; font-family:Arial;" text-anchor="middle"><textPath startOffset="21.466115282336823" xlink:href="#id16">April</textPath></text><line stroke="#e1ed5e" stroke-width="0.3" x1="174.80103733775053" x2="179.2010983576182" y1="140.37084112569926" y2="142.7455964860345" /><path d="M 175.68104954172406 140.8457921977663 a86.0,86.0 0 0,1 -30.038265399797805,32.042727171017184" fill="none" id="id17" stroke="none" /><text fill="#e1ed5e" style="font-size:6.75px; font-family:Arial;" text-anchor="middle"><textPath startOffset="22.206326154141568" xlink:href="#id17">May</textPath></text><line stroke="#e1ed5e" stroke-width="0.3" x1="143.8653032363475" x2="146.44561519142675" y1="172.8068346515853" y2="177.08958963109032" /><path d="M 144.38136562736335 173.6633856474863 a86.0,86.0 0 0,1 -40.68145358897372,12.25698825130547" fill="none" id="id18" stroke="none" /><text fill="#e1ed5e" style="font-size:6.75px; font-family:Arial;" text-anchor="middle"><textPath startOffset="21.466115282336833" xlink:href="#id18">June</textPath></text><line stroke="#e1ed5e" stroke-width="0.3" x1="102.19456741930631" x2="102.32365962044197" y1="184.97166512339345" y2="189.96999836594603" /><path d="M 102.22038585953345 185.97133177190398 a86.0,86.0 0 0,1 -42.740103519485714,-10.115201625700543" fill="none" id="id19" stroke="none" /><text fill="#e1ed5e" style="font-size:6.75px; font-family:Arial;" text-anchor="middle"><textPath startOffset="22.20632615414155" xlink:href="#id19">July</textPath></text><line stroke="#e1ed5e" stroke-width="0.3" x1="58.666819895761336" x2="56.23545636021788" y1="174.27360380694188" y2="178.64263932499728" /><path d="M 58.180547188652646 175.14741091055294 a86.0,86.0 0 0,1 -31.652253787137756,-30.449443065178592" fill="none" id="id20" stroke="none" /><text fill="#e1ed5e" style="font-size:6.75px; font-family:Arial;" text-anchor="middle"><textPath startOffset="22.20632615414155" xlink:href="#id20">August</textPath></text><line stroke="#e1ed5e" stroke-width="0.3" x1="26.63291911575756" x2="22.317208475507996" y1="142.92168965132927" y2="145.44649492493687" /><path d="M 25.769776987707644 143.4266507060508 a86.0,86.0 0 0,1 -11.730757126820373,-40.83630448921669" fill="none" id="id21" stroke="none" /><text fill="#e1ed5e" style="font-size:6.75px; font-family:Arial;" text-anchor="middle"><textPath startOffset="21.46611528233685" xlink:href="#id21">September</textPath></text><line stroke="#e1ed5e" stroke-width="0.3" x1="15.007084014347285" x2="10.007500721073583" y1="101.09737516637583" y2="101.16192664675087" /><path d="M 14.007167355692545 101.11028546245083 a86.0,86.0 0 0,1 10.666146001902534,-42.60595125391555" fill="none" id="id22" stroke="none" /><text fill="#e1ed5e" style="font-size:6.75px; font-family:Arial;" text-anchor="middle"><textPath startOffset="22.20632615414155" xlink:href="#id22">October</textPath></text><line stroke="#e1ed5e" stroke-width="0.3" x1="26.266209847984243" x2="21.928928074336255" y1="57.711370442889674" y2="55.22380399835377" /><path d="M 25.398753493254645 57.213857153982495 a86.0,86.0 0 0,1 29.58750427330803,-30.492523968695096" fill="none" id="id23" stroke="none" /><text fill="#e1ed5e" style="font-size:6.75px; font-family:Arial;" text-anchor="middle"><textPath startOffset="21.46611528233685" xlink:href="#id23">November</textPath></text><line stroke="#e1ed5e" stroke-width="0.3" x1="56.762969772571076" x2="54.21961505331055" y1="26.818313649435495" y2="22.513508569990535" /><path d="M 56.25429882871897 25.957352633546506 a86.0,86.0 0 0,1 42.265352541879196,-11.944610805530505" fill="none" id="id24" stroke="none" /><text fill="#e1ed5e" style="font-size:6.75px; font-family:Arial;" text-anchor="middle"><textPath startOffset="22.20632615414155" xlink:href="#id24">December</textPath></text></svg>